  0
SECTION
  2
HEADER
  9
$ACADVER
  1
AC1032
  9
$ACADMAINTVER
 90
      228
  9
$DWGCODEPAGE
  3
ANSI_1252
  9
$REQUIREDVERSIONS
160
                 0
  9
$INSBASE
 10
0.0
 20
0.0
 30
0.0
  9
$EXTMIN
 10
1.000000000000000E+20
 20
1.000000000000000E+20
 30
1.000000000000000E+20
  9
$EXTMAX
 10
-1.000000000000000E+20
 20
-1.000000000000000E+20
 30
-1.000000000000000E+20
  9
$LIMMIN
 10
0.0
 20
0.0
  9
$LIMMAX
 10
12.0
 20
9.0
  9
$ORTHOMODE
 70
     0
  9
$REGENMODE
 70
     1
  9
$FILLMODE
 70
     1
  9
$QTEXTMODE
 70
     0
  9
$MIRRTEXT
 70
     0
  9
$LTSCALE
 40
1.0
  9
$ATTMODE
 70
     1
  9
$TEXTSIZE
 40
0.2
  9
$TRACEWID
 40
0.05
  9
$TEXTSTYLE
  7
Standard
  9
$CLAYER
  8
0
  9
$CELTYPE
  6
ByLayer
  9
$CECOLOR
 62
   256
  9
$CELTSCALE
 40
1.0
  9
$DISPSILH
 70
     0
  9
$DIMSCALE
 40
1.0
  9
$DIMASZ
 40
0.18
  9
$DIMEXO
 40
0.0625
  9
$DIMDLI
 40
0.38
  9
$DIMRND
 40
0.0
  9
$DIMDLE
 40
0.0
  9
$DIMEXE
 40
0.18
  9
$DIMTP
 40
0.0
  9
$DIMTM
 40
0.0
  9
$DIMTXT
 40
0.18
  9
$DIMCEN
 40
0.09
  9
$DIMTSZ
 40
0.0
  9
$DIMTOL
 70
     0
  9
$DIMLIM
 70
     0
  9
$DIMTIH
 70
     1
  9
$DIMTOH
 70
     1
  9
$DIMSE1
 70
     0
  9
$DIMSE2
 70
     0
  9
$DIMTAD
 70
     0
  9
$DIMZIN
 70
     0
  9
$DIMBLK
  1

  9
$DIMASO
 70
     1
  9
$DIMSHO
 70
     1
  9
$DIMPOST
  1

  9
$DIMAPOST
  1

  9
$DIMALT
 70
     0
  9
$DIMALTD
 70
     2
  9
$DIMALTF
 40
25.4
  9
$DIMLFAC
 40
1.0
  9
$DIMTOFL
 70
     0
  9
$DIMTVP
 40
0.0
  9
$DIMTIX
 70
     0
  9
$DIMSOXD
 70
     0
  9
$DIMSAH
 70
     0
  9
$DIMBLK1
  1

  9
$DIMBLK2
  1

  9
$DIMSTYLE
  2
Standard
  9
$DIMCLRD
 70
     0
  9
$DIMCLRE
 70
     0
  9
$DIMCLRT
 70
     0
  9
$DIMTFAC
 40
1.0
  9
$DIMGAP
 40
0.09
  9
$DIMJUST
 70
     0
  9
$DIMSD1
 70
     0
  9
$DIMSD2
 70
     0
  9
$DIMTOLJ
 70
     1
  9
$DIMTZIN
 70
     0
  9
$DIMALTZ
 70
     0
  9
$DIMALTTZ
 70
     0
  9
$DIMUPT
 70
     0
  9
$DIMDEC
 70
     4
  9
$DIMTDEC
 70
     4
  9
$DIMALTU
 70
     2
  9
$DIMALTTD
 70
     2
  9
$DIMTXSTY
  7
Standard
  9
$DIMAUNIT
 70
     0
  9
$DIMADEC
 70
     0
  9
$DIMALTRND
 40
0.0
  9
$DIMAZIN
 70
     0
  9
$DIMDSEP
 70
    46
  9
$DIMATFIT
 70
     3
  9
$DIMFRAC
 70
     0
  9
$DIMLDRBLK
  1

  9
$DIMLUNIT
 70
     2
  9
$DIMLWD
 70
    -2
  9
$DIMLWE
 70
    -2
  9
$DIMTMOVE
 70
     0
  9
$DIMFXL
 40
1.0
  9
$DIMFXLON
 70
     0
  9
$DIMJOGANG
 40
0.7853981633974483
  9
$DIMTFILL
 70
     0
  9
$DIMTFILLCLR
 70
     0
  9
$DIMARCSYM
 70
     0
  9
$DIMLTYPE
  6

  9
$DIMLTEX1
  6

  9
$DIMLTEX2
  6

  9
$DIMTXTDIRECTION
 70
     0
  9
$LUNITS
 70
     2
  9
$LUPREC
 70
     4
  9
$SKETCHINC
 40
0.1
  9
$FILLETRAD
 40
0.0
  9
$AUNITS
 70
     0
  9
$AUPREC
 70
     0
  9
$MENU
  1
.
  9
$ELEVATION
 40
0.0
  9
$PELEVATION
 40
0.0
  9
$THICKNESS
 40
0.0
  9
$LIMCHECK
 70
     0
  9
$CHAMFERA
 40
0.0
  9
$CHAMFERB
 40
0.0
  9
$CHAMFERC
 40
0.0
  9
$CHAMFERD
 40
0.0
  9
$SKPOLY
 70
     0
  9
$TDCREATE
 40
2460087.614282407
  9
$TDUCREATE
 40
2460087.530949074
  9
$TDUPDATE
 40
2460087.614282407
  9
$TDUUPDATE
 40
2460087.530949074
  9
$TDINDWG
 40
0.0000000000
  9
$TDUSRTIMER
 40
0.0000000000
  9
$USRTIMER
 70
     1
  9
$ANGBASE
 50
0.0
  9
$ANGDIR
 70
     0
  9
$PDMODE
 70
     0
  9
$PDSIZE
 40
0.0
  9
$PLINEWID
 40
0.0
  9
$SPLFRAME
 70
     0
  9
$SPLINETYPE
 70
     6
  9
$SPLINESEGS
 70
     8
  9
$HANDSEED
  5
163
  9
$SURFTAB1
 70
     6
  9
$SURFTAB2
 70
     6
  9
$SURFTYPE
 70
     6
  9
$SURFU
 70
     6
  9
$SURFV
 70
     6
  9
$UCSBASE
  2

  9
$UCSNAME
  2

  9
$UCSORG
 10
0.0
 20
0.0
 30
0.0
  9
$UCSXDIR
 10
1.0
 20
0.0
 30
0.0
  9
$UCSYDIR
 10
0.0
 20
1.0
 30
0.0
  9
$UCSORTHOREF
  2

  9
$UCSORTHOVIEW
 70
     0
  9
$UCSORGTOP
 10
0.0
 20
0.0
 30
0.0
  9
$UCSORGBOTTOM
 10
0.0
 20
0.0
 30
0.0
  9
$UCSORGLEFT
 10
0.0
 20
0.0
 30
0.0
  9
$UCSORGRIGHT
 10
0.0
 20
0.0
 30
0.0
  9
$UCSORGFRONT
 10
0.0
 20
0.0
 30
0.0
  9
$UCSORGBACK
 10
0.0
 20
0.0
 30
0.0
  9
$PUCSBASE
  2

  9
$PUCSNAME
  2

  9
$PUCSORG
 10
0.0
 20
0.0
 30
0.0
  9
$PUCSXDIR
 10
1.0
 20
0.0
 30
0.0
  9
$PUCSYDIR
 10
0.0
 20
1.0
 30
0.0
  9
$PUCSORTHOREF
  2

  9
$PUCSORTHOVIEW
 70
     0
  9
$PUCSORGTOP
 10
0.0
 20
0.0
 30
0.0
  9
$PUCSORGBOTTOM
 10
0.0
 20
0.0
 30
0.0
  9
$PUCSORGLEFT
 10
0.0
 20
0.0
 30
0.0
  9
$PUCSORGRIGHT
 10
0.0
 20
0.0
 30
0.0
  9
$PUCSORGFRONT
 10
0.0
 20
0.0
 30
0.0
  9
$PUCSORGBACK
 10
0.0
 20
0.0
 30
0.0
  9
$USERI1
 70
     0
  9
$USERI2
 70
     0
  9
$USERI3
 70
     0
  9
$USERI4
 70
     0
  9
$USERI5
 70
     0
  9
$USERR1
 40
0.0
  9
$USERR2
 40
0.0
  9
$USERR3
 40
0.0
  9
$USERR4
 40
0.0
  9
$USERR5
 40
0.0
  9
$WORLDVIEW
 70
     1
  9
$SHADEDGE
 70
     3
  9
$SHADEDIF
 70
    70
  9
$TILEMODE
 70
     1
  9
$MAXACTVP
 70
    64
  9
$PINSBASE
 10
0.0
 20
0.0
 30
0.0
  9
$PLIMCHECK
 70
     0
  9
$PEXTMIN
 10
1.000000000000000E+20
 20
1.000000000000000E+20
 30
1.000000000000000E+20
  9
$PEXTMAX
 10
-1.000000000000000E+20
 20
-1.000000000000000E+20
 30
-1.000000000000000E+20
  9
$PLIMMIN
 10
0.0
 20
0.0
  9
$PLIMMAX
 10
12.0
 20
9.0
  9
$UNITMODE
 70
     0
  9
$VISRETAIN
 70
     1
  9
$PLINEGEN
 70
     0
  9
$PSLTSCALE
 70
     1
  9
$TREEDEPTH
 70
  3020
  9
$CMLSTYLE
  2
Standard
  9
$CMLJUST
 70
     0
  9
$CMLSCALE
 40
1.0
  9
$PROXYGRAPHICS
 70
     1
  9
$MEASUREMENT
 70
     0
  9
$CELWEIGHT
370
    -1
  9
$ENDCAPS
280
     0
  9
$JOINSTYLE
280
     0
  9
$LWDISPLAY
290
     1
  9
$INSUNITS
 70
     4
  9
$HYPERLINKBASE
  1

  9
$STYLESHEET
  1

  9
$XEDIT
290
     1
  9
$CEPSNTYPE
380
     0
  9
$PSTYLEMODE
290
     1
  9
$FINGERPRINTGUID
  2
{58BCA0E4-2697-DF4C-913E-0655FC485CF5}
  9
$VERSIONGUID
  2
{2620F544-E171-D042-9A84-C3E7A4A6DA9C}
  9
$EXTNAMES
290
     1
  9
$PSVPSCALE
 40
0.0
  9
$OLESTARTUP
290
     0
  9
$SORTENTS
280
   127
  9
$INDEXCTL
280
     0
  9
$HIDETEXT
280
     1
  9
$XCLIPFRAME
280
     2
  9
$HALOGAP
280
     0
  9
$OBSCOLOR
 70
   257
  9
$OBSLTYPE
280
     0
  9
$INTERSECTIONDISPLAY
280
     0
  9
$INTERSECTIONCOLOR
 70
   257
  9
$DIMASSOC
280
     2
  9
$PROJECTNAME
  1

  9
$CAMERADISPLAY
290
     0
  9
$LENSLENGTH
 40
50.0
  9
$CAMERAHEIGHT
 40
0.0
  9
$STEPSPERSEC
 40
2.0
  9
$STEPSIZE
 40
6.0
  9
$3DDWFPREC
 40
2.0
  9
$PSOLWIDTH
 40
0.25
  9
$PSOLHEIGHT
 40
4.0
  9
$LOFTANG1
 40
1.570796326794896
  9
$LOFTANG2
 40
1.570796326794896
  9
$LOFTMAG1
 40
0.0
  9
$LOFTMAG2
 40
0.0
  9
$LOFTPARAM
 70
     7
  9
$LOFTNORMALS
280
     1
  9
$LATITUDE
 40
37.795
  9
$LONGITUDE
 40
-122.394
  9
$NORTHDIRECTION
 40
0.0
  9
$TIMEZONE
 70
 -8000
  9
$LIGHTGLYPHDISPLAY
280
     1
  9
$TILEMODELIGHTSYNCH
280
     1
  9
$CMATERIAL
347
11
  9
$SOLIDHIST
280
     0
  9
$SHOWHIST
280
     1
  9
$DWFFRAME
280
     2
  9
$DGNFRAME
280
     0
  9
$REALWORLDSCALE
290
     1
  9
$INTERFERECOLOR
 62
     1
  9
$INTERFEREOBJVS
345
33
  9
$INTERFEREVPVS
346
30
  9
$CSHADOW
280
     0
  9
$SHADOWPLANELOCATION
 40
0.0
  0
ENDSEC
  0
SECTION
  2
CLASSES
  0
CLASS
  1
ACDBDICTIONARYWDFLT
  2
AcDbDictionaryWithDefault
  3
ObjectDBX Classes
 90
        0
 91
        1
280
     0
281
     0
  0
CLASS
  1
MATERIAL
  2
AcDbMaterial
  3
ObjectDBX Classes
 90
     1153
 91
        3
280
     0
281
     0
  0
CLASS
  1
VISUALSTYLE
  2
AcDbVisualStyle
  3
ObjectDBX Classes
 90
     4095
 91
       24
280
     0
281
     0
  0
CLASS
  1
SCALE
  2
AcDbScale
  3
ObjectDBX Classes
 90
     1153
 91
       17
280
     0
281
     0
  0
CLASS
  1
TABLESTYLE
  2
AcDbTableStyle
  3
ObjectDBX Classes
 90
     4095
 91
        1
280
     0
281
     0
  0
CLASS
  1
MLEADERSTYLE
  2
AcDbMLeaderStyle
  3
ACDB_MLEADERSTYLE_CLASS
 90
     4095
 91
        1
280
     0
281
     0
  0
CLASS
  1
ACDBSECTIONVIEWSTYLE
  2
AcDbSectionViewStyle
  3
ObjectDBX Classes
 90
     1025
 91
        1
280
     0
281
     0
  0
CLASS
  1
ACDBDETAILVIEWSTYLE
  2
AcDbDetailViewStyle
  3
ObjectDBX Classes
 90
     1025
 91
        1
280
     0
281
     0
  0
CLASS
  1
DICTIONARYVAR
  2
AcDbDictionaryVar
  3
ObjectDBX Classes
 90
        0
 91
        5
280
     0
281
     0
  0
CLASS
  1
CELLSTYLEMAP
  2
AcDbCellStyleMap
  3
ObjectDBX Classes
 90
     1152
 91
        1
280
     0
281
     0
  0
ENDSEC
  0
SECTION
  2
TABLES
  0
TABLE
  2
VPORT
  5
8
330
0
100
AcDbSymbolTable
 70
     1
  0
VPORT
  5
57
330
8
100
AcDbSymbolTableRecord
100
AcDbViewportTableRecord
  2
*Active
 70
     0
 10
0.0
 20
0.0
 11
1.0
 21
1.0
 12
0.0
 22
0.0
 13
0.0
 23
0.0
 14
1.0
 24
1.0
 15
0.0
 25
0.0
 16
0.0
 26
0.0
 36
1.0
 17
383.30003177809
 27
-799.9999998000013
 37
0.0
 40
815.9999997959996
 41
2.291750079684788
 42
50.0
 43
0.0
 44
0.0
 50
0.0
 51
0.0
 71
     0
 72
   100
 73
     1
 74
     1
 75
     0
 76
     0
 77
     0
 78
     0
281
     0
 65
     1
110
0.0
120
0.0
130
0.0
111
1.0
121
0.0
131
0.0
112
0.0
122
1.0
132
0.0
 79
     0
146
0.0
 60
     3
 61
     5
292
     1
282
     1
141
0.0
142
0.0
 63
   250
421
  3355443
  0
ENDTAB
  0
TABLE
  2
LTYPE
  5
5
330
0
100
AcDbSymbolTable
 70
     1
  0
LTYPE
  5
5B
330
5
100
AcDbSymbolTableRecord
100
AcDbLinetypeTableRecord
  2
ByBlock
 70
     0
  3

 72
    65
 73
     0
 40
0.0
  0
LTYPE
  5
5C
330
5
100
AcDbSymbolTableRecord
100
AcDbLinetypeTableRecord
  2
ByLayer
 70
     0
  3

 72
    65
 73
     0
 40
0.0
  0
LTYPE
  5
5D
330
5
100
AcDbSymbolTableRecord
100
AcDbLinetypeTableRecord
  2
Continuous
 70
     0
  3
Solid line
 72
    65
 73
     0
 40
0.0
  0
ENDTAB
  0
TABLE
  2
LAYER
  5
2
330
0
100
AcDbSymbolTable
 70
     4
  0
LAYER
  5
54
330
2
100
AcDbSymbolTableRecord
100
AcDbLayerTableRecord
  2
0
 70
     0
 62
     7
  6
Continuous
370
    -3
390
F
347
21
348
0
  0
LAYER
  5
78
330
2
100
AcDbSymbolTableRecord
100
AcDbLayerTableRecord
  2
3mm
 70
     0
 62
     7
  6
Continuous
370
     0
390
F
347
21
348
0
  0
LAYER
  5
93
330
2
100
AcDbSymbolTableRecord
100
AcDbLayerTableRecord
  2
2mm
 70
     1
 62
     7
  6
Continuous
370
     0
390
F
347
21
348
0
  0
LAYER
  5
95
330
2
100
AcDbSymbolTableRecord
100
AcDbLayerTableRecord
  2
5mm
 70
     1
 62
     7
  6
Continuous
370
     0
390
F
347
21
348
0
  0
ENDTAB
  0
TABLE
  2
STYLE
  5
3
330
0
100
AcDbSymbolTable
 70
     2
  0
STYLE
  5
55
330
3
100
AcDbSymbolTableRecord
100
AcDbTextStyleTableRecord
  2
Standard
 70
     0
 40
0.0
 41
1.0
 50
0.0
 71
     0
 42
0.2
  3
txt
  4

  0
STYLE
  5
5A
330
3
100
AcDbSymbolTableRecord
100
AcDbTextStyleTableRecord
  2
Annotative
 70
     0
 40
0.0
 41
1.0
 50
0.0
 71
     0
 42
0.2
  3
txt
  4

1001
AcadAnnotative
1000
AnnotativeData
1002
{
1070
     1
1070
     1
1002
}
  0
ENDTAB
  0
TABLE
  2
VIEW
  5
6
330
0
100
AcDbSymbolTable
 70
     0
  0
ENDTAB
  0
TABLE
  2
UCS
  5
7
330
0
100
AcDbSymbolTable
 70
     0
  0
ENDTAB
  0
TABLE
  2
APPID
  5
9
330
0
100
AcDbSymbolTable
 70
     2
  0
APPID
  5
56
330
9
100
AcDbSymbolTableRecord
100
AcDbRegAppTableRecord
  2
ACAD
 70
     0
  0
APPID
  5
5E
330
9
100
AcDbSymbolTableRecord
100
AcDbRegAppTableRecord
  2
AcadAnnotative
 70
     0
  0
ENDTAB
  0
TABLE
  2
DIMSTYLE
  5
A
330
0
100
AcDbSymbolTable
 70
     2
100
AcDbDimStyleTable
 71
     0
  0
DIMSTYLE
105
58
330
A
100
AcDbSymbolTableRecord
100
AcDbDimStyleTableRecord
  2
Standard
 70
     0
340
55
  0
DIMSTYLE
105
59
330
A
100
AcDbSymbolTableRecord
100
AcDbDimStyleTableRecord
  2
Annotative
 70
     0
340
55
1001
AcadAnnotative
1000
AnnotativeData
1002
{
1070
     1
1070
     1
1002
}
  0
ENDTAB
  0
TABLE
  2
BLOCK_RECORD
  5
1
330
0
100
AcDbSymbolTable
 70
     1
  0
BLOCK_RECORD
  5
70
330
1
100
AcDbSymbolTableRecord
100
AcDbBlockTableRecord
  2
*Model_Space
340
73
 70
     0
280
     1
281
     0
  0
BLOCK_RECORD
  5
6C
330
1
100
AcDbSymbolTableRecord
100
AcDbBlockTableRecord
  2
*Paper_Space
340
6F
 70
     0
280
     1
281
     0
  0
BLOCK_RECORD
  5
74
330
1
100
AcDbSymbolTableRecord
100
AcDbBlockTableRecord
  2
*Paper_Space0
340
77
 70
     0
280
     1
281
     0
  0
ENDTAB
  0
ENDSEC
  0
SECTION
  2
BLOCKS
  0
BLOCK
  5
71
330
70
100
AcDbEntity
  8
0
100
AcDbBlockBegin
  2
*Model_Space
 70
     0
 10
0.0
 20
0.0
 30
0.0
  3
*Model_Space
  1

  0
ENDBLK
  5
72
330
70
100
AcDbEntity
  8
0
100
AcDbBlockEnd
  0
BLOCK
  5
6D
330
6C
100
AcDbEntity
 67
     1
  8
0
100
AcDbBlockBegin
  2
*Paper_Space
 70
     0
 10
0.0
 20
0.0
 30
0.0
  3
*Paper_Space
  1

  0
ENDBLK
  5
6E
330
6C
100
AcDbEntity
 67
     1
  8
0
100
AcDbBlockEnd
  0
BLOCK
  5
75
330
74
100
AcDbEntity
 67
     1
  8
0
100
AcDbBlockBegin
  2
*Paper_Space0
 70
     0
 10
0.0
 20
0.0
 30
0.0
  3
*Paper_Space0
  1

  0
ENDBLK
  5
76
330
74
100
AcDbEntity
 67
     1
  8
0
100
AcDbBlockEnd
  0
ENDSEC
  0
SECTION
  2
ENTITIES
  0
LWPOLYLINE
  5
79
330
70
100
AcDbEntity
  8
3mm
 62
    18
420
        0
370
    35
100
AcDbPolyline
 90
        4
 70
     1
 43
0.0
 10
-499.9999671970252
 20
-1152.361127160532
 10
-499.9999671970252
 20
-1149.111127161343
 10
1300.000032352975
 20
-1149.111127161343
 10
1300.000032352975
 20
-1152.361127160532
  0
LWPOLYLINE
  5
7A
330
70
100
AcDbEntity
  8
3mm
 62
    18
420
        0
370
    35
100
AcDbPolyline
 90
        4
 70
     1
 43
0.0
 10
-499.9999671970252
 20
-1052.17223829669
 10
-499.9999671970252
 20
-1048.9222382975
 10
1300.000032352975
 20
-1048.9222382975
 10
1300.000032352975
 20
-1052.17223829669
  0
LWPOLYLINE
  5
7B
330
70
100
AcDbEntity
  8
3mm
 62
    18
420
        0
370
    35
100
AcDbPolyline
 90
        4
 70
     1
 43
0.0
 10
-499.9999671970252
 20
-951.9833494328484
 10
-499.9999671970252
 20
-948.7333494336592
 10
1300.000032352975
 20
-948.7333494336592
 10
1300.000032352975
 20
-951.9833494328484
  0
LWPOLYLINE
  5
7C
330
70
100
AcDbEntity
  8
3mm
 62
    18
420
        0
370
    35
100
AcDbPolyline
 90
        4
 70
     1
 43
0.0
 10
-499.9999671970252
 20
-851.7944605690068
 10
-499.9999671970252
 20
-848.5444605698175
 10
1300.000032352975
 20
-848.5444605698175
 10
1300.000032352975
 20
-851.7944605690068
  0
LWPOLYLINE
  5
7D
330
70
100
AcDbEntity
  8
3mm
 62
    18
420
        0
370
    35
100
AcDbPolyline
 90
        4
 70
     1
 43
0.0
 10
-499.9999671970252
 20
-751.605571705165
 10
-499.9999671970252
 20
-748.3555717059762
 10
1300.000032352975
 20
-748.3555717059762
 10
1300.000032352975
 20
-751.605571705165
  0
LWPOLYLINE
  5
7E
330
70
100
AcDbEntity
  8
3mm
 62
    18
420
        0
370
    35
100
AcDbPolyline
 90
        4
 70
     1
 43
0.0
 10
-499.9999671970252
 20
-651.416682841323
 10
-499.9999671970252
 20
-648.1666828421346
 10
1300.000032352975
 20
-648.1666828421346
 10
1300.000032352975
 20
-651.416682841323
  0
LWPOLYLINE
  5
7F
330
70
100
AcDbEntity
  8
3mm
 62
    18
420
        0
370
    35
100
AcDbPolyline
 90
        4
 70
     1
 43
0.0
 10
-499.9999671970252
 20
-551.2277939774813
 10
-499.9999671970252
 20
-547.9777939782929
 10
1300.000032352975
 20
-547.9777939782929
 10
1300.000032352975
 20
-551.2277939774813
  0
LWPOLYLINE
  5
80
330
70
100
AcDbEntity
  8
3mm
 62
    18
420
        0
370
    35
100
AcDbPolyline
 90
        4
 70
     1
 43
0.0
 10
-499.9999671970252
 20
-451.0389051136397
 10
-499.9999671970252
 20
-447.7889051144511
 10
1300.000032352975
 20
-447.7889051144511
 10
1300.000032352975
 20
-451.0389051136397
  0
LWPOLYLINE
  5
81
330
70
100
AcDbEntity
  8
3mm
 62
    18
420
        0
370
    35
100
AcDbPolyline
 90
        4
 70
     1
 43
0.0
 10
-349.6944444707581
 20
-1199.999999700001
 10
-352.9444443921239
 20
-1199.999999699934
 10
-352.9444443143047
 20
-399.9999999000015
 10
-349.6944443929379
 20
-399.9999999000689
  0
LWPOLYLINE
  5
82
330
70
100
AcDbEntity
  8
3mm
 62
    18
420
        0
370
    35
100
AcDbPolyline
 90
        4
 70
     1
 43
0.0
 10
-449.8833333345997
 20
-1199.999999700001
 10
-453.1333332559655
 20
-1199.999999699934
 10
-453.1333331781464
 20
-399.9999999000015
 10
-449.8833332567805
 20
-399.9999999000689
  0
LWPOLYLINE
  5
83
330
70
100
AcDbEntity
  8
3mm
 62
    18
420
        0
370
    35
100
AcDbPolyline
 90
        4
 70
     1
 43
0.0
 10
-249.5055556069164
 20
-1199.999999700001
 10
-252.7555555282835
 20
-1199.999999699934
 10
-252.7555554504634
 20
-399.9999999000015
 10
-249.5055555290963
 20
-399.9999999000689
  0
LWPOLYLINE
  5
84
330
70
100
AcDbEntity
  8
3mm
 62
    18
420
        0
370
    35
100
AcDbPolyline
 90
        4
 70
     1
 43
0.0
 10
-149.3166667430747
 20
-1199.999999700001
 10
-152.5666666644418
 20
-1199.999999699934
 10
-152.5666665866217
 20
-399.9999999000015
 10
-149.3166666652546
 20
-399.9999999000689
  0
LWPOLYLINE
  5
85
330
70
100
AcDbEntity
  8
3mm
 62
    18
420
        0
370
    35
100
AcDbPolyline
 90
        4
 70
     1
 43
0.0
 10
-49.12777787923303
 20
-1199.999999700001
 10
-52.37777780060016
 20
-1199.999999699934
 10
-52.37777772278003
 20
-399.9999999000015
 10
-49.12777780141291
 20
-399.9999999000689
  0
LWPOLYLINE
  5
86
330
70
100
AcDbEntity
  8
3mm
 62
    18
420
        0
370
    35
100
AcDbPolyline
 90
        4
 70
     1
 43
0.0
 10
51.06111098460863
 20
-1199.999999700001
 10
47.81111106324152
 20
-1199.999999699934
 10
47.81111114106164
 20
-399.9999999000015
 10
51.06111106242876
 20
-399.9999999000689
  0
LWPOLYLINE
  5
87
330
70
100
AcDbEntity
  8
3mm
 62
    18
420
        0
370
    35
100
AcDbPolyline
 90
        4
 70
     1
 43
0.0
 10
151.2499998484503
 20
-1199.999999700001
 10
147.9999999270832
 20
-1199.999999699934
 10
148.0000000049033
 20
-399.9999999000015
 10
151.2499999262704
 20
-399.9999999000689
  0
LWPOLYLINE
  5
88
330
70
100
AcDbEntity
  8
3mm
 62
    18
420
        0
370
    35
100
AcDbPolyline
 90
        4
 70
     1
 43
0.0
 10
251.438888712292
 20
-1199.999999700001
 10
248.1888887909249
 20
-1199.999999699934
 10
248.188888868745
 20
-399.9999999000015
 10
251.4388887901121
 20
-399.9999999000689
  0
LWPOLYLINE
  5
89
330
70
100
AcDbEntity
  8
3mm
 62
    18
420
        0
370
    35
100
AcDbPolyline
 90
        4
 70
     1
 43
0.0
 10
351.6277775761337
 20
-1199.999999700001
 10
348.3777776547665
 20
-1199.999999699934
 10
348.3777777325867
 20
-399.9999999000015
 10
351.6277776539538
 20
-399.9999999000689
  0
LWPOLYLINE
  5
8A
330
70
100
AcDbEntity
  8
3mm
 62
    18
420
        0
370
    35
100
AcDbPolyline
 90
        4
 70
     1
 43
0.0
 10
451.8166664399753
 20
-1199.999999700001
 10
448.5666665186094
 20
-1199.999999699934
 10
448.5666665964289
 20
-399.9999999000015
 10
451.8166665177941
 20
-399.9999999000689
  0
LWPOLYLINE
  5
8B
330
70
100
AcDbEntity
  8
3mm
 62
    18
420
        0
370
    35
100
AcDbPolyline
 90
        4
 70
     1
 43
0.0
 10
552.005555303817
 20
-1199.999999700001
 10
548.7555553824511
 20
-1199.999999699934
 10
548.7555554602706
 20
-399.9999999000015
 10
552.0055553816359
 20
-399.9999999000689
  0
LWPOLYLINE
  5
8C
330
70
100
AcDbEntity
  8
3mm
 62
    18
420
        0
370
    35
100
AcDbPolyline
 90
        4
 70
     1
 43
0.0
 10
652.1944441676586
 20
-1199.999999700001
 10
648.9444442462928
 20
-1199.999999699934
 10
648.9444443241122
 20
-399.9999999000015
 10
652.1944442454774
 20
-399.9999999000689
  0
LWPOLYLINE
  5
8D
330
70
100
AcDbEntity
  8
3mm
 62
    18
420
        0
370
    35
100
AcDbPolyline
 90
        4
 70
     1
 43
0.0
 10
752.3833330315003
 20
-1199.999999700001
 10
749.1333331101344
 20
-1199.999999699934
 10
749.1333331879539
 20
-399.9999999000015
 10
752.3833331093192
 20
-399.9999999000689
  0
LWPOLYLINE
  5
8E
330
70
100
AcDbEntity
  8
3mm
 62
    18
420
        0
370
    35
100
AcDbPolyline
 90
        4
 70
     1
 43
0.0
 10
852.5722218953418
 20
-1199.999999700001
 10
849.3222219739761
 20
-1199.999999699934
 10
849.3222220517957
 20
-399.9999999000015
 10
852.5722219731608
 20
-399.9999999000689
  0
LWPOLYLINE
  5
8F
330
70
100
AcDbEntity
  8
3mm
 62
    18
420
        0
370
    35
100
AcDbPolyline
 90
        4
 70
     1
 43
0.0
 10
952.7611107591836
 20
-1199.999999700001
 10
949.5111108378178
 20
-1199.999999699934
 10
949.5111109156374
 20
-399.9999999000015
 10
952.7611108370026
 20
-399.9999999000689
  0
LWPOLYLINE
  5
90
330
70
100
AcDbEntity
  8
3mm
 62
    18
420
        0
370
    35
100
AcDbPolyline
 90
        4
 70
     1
 43
0.0
 10
1052.949999623025
 20
-1199.999999700001
 10
1049.699999701659
 20
-1199.999999699934
 10
1049.699999779479
 20
-399.9999999000015
 10
1052.949999700844
 20
-399.9999999000689
  0
LWPOLYLINE
  5
91
330
70
100
AcDbEntity
  8
3mm
 62
    18
420
        0
370
    35
100
AcDbPolyline
 90
        4
 70
     1
 43
0.0
 10
1153.138888486867
 20
-1199.999999700001
 10
1149.888888565501
 20
-1199.999999699934
 10
1149.88888864332
 20
-399.9999999000015
 10
1153.138888564686
 20
-399.9999999000689
  0
LWPOLYLINE
  5
92
330
70
100
AcDbEntity
  8
3mm
 62
    18
420
        0
370
    35
100
AcDbPolyline
 90
        4
 70
     1
 43
0.0
 10
1253.327777350708
 20
-1199.999999700001
 10
1250.077777429343
 20
-1199.999999699934
 10
1250.077777507162
 20
-399.9999999000015
 10
1253.327777428527
 20
-399.9999999000689
  0
LWPOLYLINE
  5
94
330
70
100
AcDbEntity
  8
2mm
 62
    18
420
        0
370
    35
100
AcDbPolyline
 90
        4
 70
     1
 43
0.0
 10
-531.3999998671511
 20
-513.455555427194
 10
-533.39999986665
 20
-513.455555427194
 10
-533.39999986665
 20
-413.4555554521917
 10
-531.3999998671511
 20
-413.4555554521917
  0
LWPOLYLINE
  5
96
330
70
100
AcDbEntity
  8
5mm
 62
    18
420
        0
370
    35
100
AcDbPolyline
 90
        4
 70
     1
 43
0.0
 10
-312.8527776995645
 20
-519.8055554256065
 10
-317.8527776983146
 20
-519.8055554256065
 10
-317.8527776983146
 20
-419.8055554506042
 10
-312.8527776995645
 20
-419.8055554506042
  0
LWPOLYLINE
  5
97
330
70
100
AcDbEntity
  8
5mm
 62
    18
420
        0
370
    35
100
AcDbPolyline
 90
        4
 70
     1
 43
0.0
 10
-265.3527777113274
 20
-467.3055554409732
 10
-265.3527777115517
 20
-472.3055554397244
 10
-365.352777686553
 20
-472.3055554352338
 10
-365.3527776863271
 20
-467.3055554364859
  0
LWPOLYLINE
  5
98
330
70
100
AcDbEntity
  8
5mm
 62
    18
420
        0
370
    35
100
AcDbPolyline
 90
        4
 70
     1
 43
0.0
 10
-312.8527776995645
 20
-629.8722220647564
 10
-317.8527776983146
 20
-629.8722220647564
 10
-317.8527776983146
 20
-529.8722220897542
 10
-312.8527776995645
 20
-529.8722220897542
  0
LWPOLYLINE
  5
99
330
70
100
AcDbEntity
  8
5mm
 62
    18
420
        0
370
    35
100
AcDbPolyline
 90
        4
 70
     1
 43
0.0
 10
-265.3527777113274
 20
-577.3722220801233
 10
-265.3527777115517
 20
-582.3722220788744
 10
-365.352777686553
 20
-582.3722220743838
 10
-365.3527776863271
 20
-577.3722220756359
  0
LWPOLYLINE
  5
9A
330
70
100
AcDbEntity
  8
5mm
 62
    18
420
        0
370
    35
100
AcDbPolyline
 90
        4
 70
     1
 43
0.0
 10
-312.8527776995645
 20
-739.9388887039065
 10
-317.8527776983146
 20
-739.9388887039065
 10
-317.8527776983146
 20
-639.9388887289042
 10
-312.8527776995645
 20
-639.9388887289042
  0
LWPOLYLINE
  5
9B
330
70
100
AcDbEntity
  8
5mm
 62
    18
420
        0
370
    35
100
AcDbPolyline
 90
        4
 70
     1
 43
0.0
 10
-265.3527777113274
 20
-687.4388887192733
 10
-265.3527777115517
 20
-692.4388887180245
 10
-365.352777686553
 20
-692.4388887135338
 10
-365.3527776863271
 20
-687.4388887147858
  0
LWPOLYLINE
  5
9C
330
70
100
AcDbEntity
  8
5mm
 62
    18
420
        0
370
    35
100
AcDbPolyline
 90
        4
 70
     1
 43
0.0
 10
-312.8527776995645
 20
-850.0055553430565
 10
-317.8527776983146
 20
-850.0055553430565
 10
-317.8527776983146
 20
-750.0055553680541
 10
-312.8527776995645
 20
-750.0055553680541
  0
LWPOLYLINE
  5
9D
330
70
100
AcDbEntity
  8
5mm
 62
    18
420
        0
370
    35
100
AcDbPolyline
 90
        4
 70
     1
 43
0.0
 10
-265.3527777113274
 20
-797.5055553584232
 10
-265.3527777115517
 20
-802.5055553571744
 10
-365.352777686553
 20
-802.5055553526838
 10
-365.3527776863271
 20
-797.5055553539363
  0
LWPOLYLINE
  5
9E
330
70
100
AcDbEntity
  8
5mm
 62
    18
420
        0
370
    35
100
AcDbPolyline
 90
        4
 70
     1
 43
0.0
 10
-312.8527776995645
 20
-960.0722219822065
 10
-317.8527776983146
 20
-960.0722219822065
 10
-317.8527776983146
 20
-860.0722220072041
 10
-312.8527776995645
 20
-860.0722220072041
  0
LWPOLYLINE
  5
9F
330
70
100
AcDbEntity
  8
5mm
 62
    18
420
        0
370
    35
100
AcDbPolyline
 90
        4
 70
     1
 43
0.0
 10
-265.3527777113274
 20
-907.5722219975737
 10
-265.3527777115517
 20
-912.5722219963243
 10
-365.352777686553
 20
-912.5722219918339
 10
-365.3527776863271
 20
-907.5722219930863
  0
LWPOLYLINE
  5
A0
330
70
100
AcDbEntity
  8
5mm
 62
    18
420
        0
370
    35
100
AcDbPolyline
 90
        4
 70
     1
 43
0.0
 10
-312.8527776995645
 20
-1070.138888621356
 10
-317.8527776983146
 20
-1070.138888621356
 10
-317.8527776983146
 20
-970.1388886463542
 10
-312.8527776995645
 20
-970.1388886463542
  0
LWPOLYLINE
  5
A1
330
70
100
AcDbEntity
  8
5mm
 62
    18
420
        0
370
    35
100
AcDbPolyline
 90
        4
 70
     1
 43
0.0
 10
-265.3527777113274
 20
-1017.638888636724
 10
-265.3527777115517
 20
-1022.638888635474
 10
-365.352777686553
 20
-1022.638888630984
 10
-365.3527776863271
 20
-1017.638888632236
  0
LWPOLYLINE
  5
A2
330
70
100
AcDbEntity
  8
5mm
 62
    18
420
        0
370
    35
100
AcDbPolyline
 90
        4
 70
     1
 43
0.0
 10
-312.8527776995645
 20
-1180.205555260506
 10
-317.8527776983146
 20
-1180.205555260506
 10
-317.8527776983146
 20
-1080.205555285504
 10
-312.8527776995645
 20
-1080.205555285504
  0
LWPOLYLINE
  5
A3
330
70
100
AcDbEntity
  8
5mm
 62
    18
420
        0
370
    35
100
AcDbPolyline
 90
        4
 70
     1
 43
0.0
 10
-265.3527777113274
 20
-1127.705555275873
 10
-265.3527777115517
 20
-1132.705555274624
 10
-365.352777686553
 20
-1132.705555270134
 10
-365.3527776863271
 20
-1127.705555271386
  0
LWPOLYLINE
  5
A4
330
70
100
AcDbEntity
  8
5mm
 62
    18
420
        0
370
    35
100
AcDbPolyline
 90
        4
 70
     1
 43
0.0
 10
-202.7861110604145
 20
-519.8055554256065
 10
-207.7861110591646
 20
-519.8055554256065
 10
-207.7861110591646
 20
-419.8055554506042
 10
-202.7861110604145
 20
-419.8055554506042
  0
LWPOLYLINE
  5
A5
330
70
100
AcDbEntity
  8
5mm
 62
    18
420
        0
370
    35
100
AcDbPolyline
 90
        4
 70
     1
 43
0.0
 10
-155.2861110721773
 20
-467.3055554409732
 10
-155.2861110724016
 20
-472.3055554397244
 10
-255.2861110474017
 20
-472.3055554352338
 10
-255.2861110471777
 20
-467.3055554364859
  0
LWPOLYLINE
  5
A6
330
70
100
AcDbEntity
  8
5mm
 62
    18
420
        0
370
    35
100
AcDbPolyline
 90
        4
 70
     1
 43
0.0
 10
-202.7861110604145
 20
-629.8722220647564
 10
-207.7861110591646
 20
-629.8722220647564
 10
-207.7861110591646
 20
-529.8722220897542
 10
-202.7861110604145
 20
-529.8722220897542
  0
LWPOLYLINE
  5
A7
330
70
100
AcDbEntity
  8
5mm
 62
    18
420
        0
370
    35
100
AcDbPolyline
 90
        4
 70
     1
 43
0.0
 10
-155.2861110721773
 20
-577.3722220801233
 10
-155.2861110724016
 20
-582.3722220788744
 10
-255.2861110474017
 20
-582.3722220743838
 10
-255.2861110471777
 20
-577.3722220756359
  0
LWPOLYLINE
  5
A8
330
70
100
AcDbEntity
  8
5mm
 62
    18
420
        0
370
    35
100
AcDbPolyline
 90
        4
 70
     1
 43
0.0
 10
-202.7861110604145
 20
-739.9388887039065
 10
-207.7861110591646
 20
-739.9388887039065
 10
-207.7861110591646
 20
-639.9388887289042
 10
-202.7861110604145
 20
-639.9388887289042
  0
LWPOLYLINE
  5
A9
330
70
100
AcDbEntity
  8
5mm
 62
    18
420
        0
370
    35
100
AcDbPolyline
 90
        4
 70
     1
 43
0.0
 10
-155.2861110721773
 20
-687.4388887192733
 10
-155.2861110724016
 20
-692.4388887180245
 10
-255.2861110474017
 20
-692.4388887135338
 10
-255.2861110471777
 20
-687.4388887147858
  0
LWPOLYLINE
  5
AA
330
70
100
AcDbEntity
  8
5mm
 62
    18
420
        0
370
    35
100
AcDbPolyline
 90
        4
 70
     1
 43
0.0
 10
-202.7861110604145
 20
-850.0055553430565
 10
-207.7861110591646
 20
-850.0055553430565
 10
-207.7861110591646
 20
-750.0055553680541
 10
-202.7861110604145
 20
-750.0055553680541
  0
LWPOLYLINE
  5
AB
330
70
100
AcDbEntity
  8
5mm
 62
    18
420
        0
370
    35
100
AcDbPolyline
 90
        4
 70
     1
 43
0.0
 10
-155.2861110721773
 20
-797.5055553584232
 10
-155.2861110724016
 20
-802.5055553571744
 10
-255.2861110474017
 20
-802.5055553526838
 10
-255.2861110471777
 20
-797.5055553539363
  0
LWPOLYLINE
  5
AC
330
70
100
AcDbEntity
  8
5mm
 62
    18
420
        0
370
    35
100
AcDbPolyline
 90
        4
 70
     1
 43
0.0
 10
-202.7861110604145
 20
-960.0722219822065
 10
-207.7861110591646
 20
-960.0722219822065
 10
-207.7861110591646
 20
-860.0722220072041
 10
-202.7861110604145
 20
-860.0722220072041
  0
LWPOLYLINE
  5
AD
330
70
100
AcDbEntity
  8
5mm
 62
    18
420
        0
370
    35
100
AcDbPolyline
 90
        4
 70
     1
 43
0.0
 10
-155.2861110721773
 20
-907.5722219975737
 10
-155.2861110724016
 20
-912.5722219963243
 10
-255.2861110474017
 20
-912.5722219918339
 10
-255.2861110471777
 20
-907.5722219930863
  0
LWPOLYLINE
  5
AE
330
70
100
AcDbEntity
  8
5mm
 62
    18
420
        0
370
    35
100
AcDbPolyline
 90
        4
 70
     1
 43
0.0
 10
-202.7861110604145
 20
-1070.138888621356
 10
-207.7861110591646
 20
-1070.138888621356
 10
-207.7861110591646
 20
-970.1388886463542
 10
-202.7861110604145
 20
-970.1388886463542
  0
LWPOLYLINE
  5
AF
330
70
100
AcDbEntity
  8
5mm
 62
    18
420
        0
370
    35
100
AcDbPolyline
 90
        4
 70
     1
 43
0.0
 10
-155.2861110721773
 20
-1017.638888636724
 10
-155.2861110724016
 20
-1022.638888635474
 10
-255.2861110474017
 20
-1022.638888630984
 10
-255.2861110471777
 20
-1017.638888632236
  0
LWPOLYLINE
  5
B0
330
70
100
AcDbEntity
  8
5mm
 62
    18
420
        0
370
    35
100
AcDbPolyline
 90
        4
 70
     1
 43
0.0
 10
-202.7861110604145
 20
-1180.205555260506
 10
-207.7861110591646
 20
-1180.205555260506
 10
-207.7861110591646
 20
-1080.205555285504
 10
-202.7861110604145
 20
-1080.205555285504
  0
LWPOLYLINE
  5
B1
330
70
100
AcDbEntity
  8
5mm
 62
    18
420
        0
370
    35
100
AcDbPolyline
 90
        4
 70
     1
 43
0.0
 10
-155.2861110721773
 20
-1127.705555275873
 10
-155.2861110724016
 20
-1132.705555274624
 10
-255.2861110474017
 20
-1132.705555270134
 10
-255.2861110471777
 20
-1127.705555271386
  0
LWPOLYLINE
  5
B2
330
70
100
AcDbEntity
  8
5mm
 62
    18
420
        0
370
    35
100
AcDbPolyline
 90
        4
 70
     1
 43
0.0
 10
-92.71944442126445
 20
-519.8055554256065
 10
-97.71944442001458
 20
-519.8055554256065
 10
-97.71944442001458
 20
-419.8055554506042
 10
-92.71944442126445
 20
-419.8055554506042
  0
LWPOLYLINE
  5
B3
330
70
100
AcDbEntity
  8
5mm
 62
    18
420
        0
370
    35
100
AcDbPolyline
 90
        4
 70
     1
 43
0.0
 10
-45.21944443302735
 20
-467.3055554409732
 10
-45.21944443325162
 20
-472.3055554397244
 10
-145.2194444082516
 20
-472.3055554352338
 10
-145.2194444080277
 20
-467.3055554364859
  0
LWPOLYLINE
  5
B4
330
70
100
AcDbEntity
  8
5mm
 62
    18
420
        0
370
    35
100
AcDbPolyline
 90
        4
 70
     1
 43
0.0
 10
-92.71944442126445
 20
-629.8722220647564
 10
-97.71944442001458
 20
-629.8722220647564
 10
-97.71944442001458
 20
-529.8722220897542
 10
-92.71944442126445
 20
-529.8722220897542
  0
LWPOLYLINE
  5
B5
330
70
100
AcDbEntity
  8
5mm
 62
    18
420
        0
370
    35
100
AcDbPolyline
 90
        4
 70
     1
 43
0.0
 10
-45.21944443302735
 20
-577.3722220801233
 10
-45.21944443325162
 20
-582.3722220788744
 10
-145.2194444082516
 20
-582.3722220743838
 10
-145.2194444080277
 20
-577.3722220756359
  0
LWPOLYLINE
  5
B6
330
70
100
AcDbEntity
  8
5mm
 62
    18
420
        0
370
    35
100
AcDbPolyline
 90
        4
 70
     1
 43
0.0
 10
-92.71944442126445
 20
-739.9388887039065
 10
-97.71944442001458
 20
-739.9388887039065
 10
-97.71944442001458
 20
-639.9388887289042
 10
-92.71944442126445
 20
-639.9388887289042
  0
LWPOLYLINE
  5
B7
330
70
100
AcDbEntity
  8
5mm
 62
    18
420
        0
370
    35
100
AcDbPolyline
 90
        4
 70
     1
 43
0.0
 10
-45.21944443302735
 20
-687.4388887192733
 10
-45.21944443325162
 20
-692.4388887180245
 10
-145.2194444082516
 20
-692.4388887135338
 10
-145.2194444080277
 20
-687.4388887147858
  0
LWPOLYLINE
  5
B8
330
70
100
AcDbEntity
  8
5mm
 62
    18
420
        0
370
    35
100
AcDbPolyline
 90
        4
 70
     1
 43
0.0
 10
-92.71944442126445
 20
-850.0055553430565
 10
-97.71944442001458
 20
-850.0055553430565
 10
-97.71944442001458
 20
-750.0055553680541
 10
-92.71944442126445
 20
-750.0055553680541
  0
LWPOLYLINE
  5
B9
330
70
100
AcDbEntity
  8
5mm
 62
    18
420
        0
370
    35
100
AcDbPolyline
 90
        4
 70
     1
 43
0.0
 10
-45.21944443302735
 20
-797.5055553584232
 10
-45.21944443325162
 20
-802.5055553571744
 10
-145.2194444082516
 20
-802.5055553526838
 10
-145.2194444080277
 20
-797.5055553539363
  0
LWPOLYLINE
  5
BA
330
70
100
AcDbEntity
  8
5mm
 62
    18
420
        0
370
    35
100
AcDbPolyline
 90
        4
 70
     1
 43
0.0
 10
-92.71944442126445
 20
-960.0722219822065
 10
-97.71944442001458
 20
-960.0722219822065
 10
-97.71944442001458
 20
-860.0722220072041
 10
-92.71944442126445
 20
-860.0722220072041
  0
LWPOLYLINE
  5
BB
330
70
100
AcDbEntity
  8
5mm
 62
    18
420
        0
370
    35
100
AcDbPolyline
 90
        4
 70
     1
 43
0.0
 10
-45.21944443302735
 20
-907.5722219975737
 10
-45.21944443325162
 20
-912.5722219963243
 10
-145.2194444082516
 20
-912.5722219918339
 10
-145.2194444080277
 20
-907.5722219930863
  0
LWPOLYLINE
  5
BC
330
70
100
AcDbEntity
  8
5mm
 62
    18
420
        0
370
    35
100
AcDbPolyline
 90
        4
 70
     1
 43
0.0
 10
-92.71944442126445
 20
-1070.138888621356
 10
-97.71944442001458
 20
-1070.138888621356
 10
-97.71944442001458
 20
-970.1388886463542
 10
-92.71944442126445
 20
-970.1388886463542
  0
LWPOLYLINE
  5
BD
330
70
100
AcDbEntity
  8
5mm
 62
    18
420
        0
370
    35
100
AcDbPolyline
 90
        4
 70
     1
 43
0.0
 10
-45.21944443302735
 20
-1017.638888636724
 10
-45.21944443325162
 20
-1022.638888635474
 10
-145.2194444082516
 20
-1022.638888630984
 10
-145.2194444080277
 20
-1017.638888632236
  0
LWPOLYLINE
  5
BE
330
70
100
AcDbEntity
  8
5mm
 62
    18
420
        0
370
    35
100
AcDbPolyline
 90
        4
 70
     1
 43
0.0
 10
-92.71944442126445
 20
-1180.205555260506
 10
-97.71944442001458
 20
-1180.205555260506
 10
-97.71944442001458
 20
-1080.205555285504
 10
-92.71944442126445
 20
-1080.205555285504
  0
LWPOLYLINE
  5
BF
330
70
100
AcDbEntity
  8
5mm
 62
    18
420
        0
370
    35
100
AcDbPolyline
 90
        4
 70
     1
 43
0.0
 10
-45.21944443302735
 20
-1127.705555275873
 10
-45.21944443325162
 20
-1132.705555274624
 10
-145.2194444082516
 20
-1132.705555270134
 10
-145.2194444080277
 20
-1127.705555271386
  0
LWPOLYLINE
  5
C0
330
70
100
AcDbEntity
  8
5mm
 62
    18
420
        0
370
    35
100
AcDbPolyline
 90
        4
 70
     1
 43
0.0
 10
17.34722221788556
 20
-519.8055554256065
 10
12.34722221913542
 20
-519.8055554256065
 10
12.34722221913542
 20
-419.8055554506042
 10
17.34722221788556
 20
-419.8055554506042
  0
LWPOLYLINE
  5
C1
330
70
100
AcDbEntity
  8
5mm
 62
    18
420
        0
370
    35
100
AcDbPolyline
 90
        4
 70
     1
 43
0.0
 10
64.84722220612265
 20
-467.3055554409732
 10
64.84722220589837
 20
-472.3055554397244
 10
-35.15277776910167
 20
-472.3055554352338
 10
-35.1527777688774
 20
-467.3055554364859
  0
LWPOLYLINE
  5
C2
330
70
100
AcDbEntity
  8
5mm
 62
    18
420
        0
370
    35
100
AcDbPolyline
 90
        4
 70
     1
 43
0.0
 10
17.34722221788556
 20
-629.8722220647564
 10
12.34722221913542
 20
-629.8722220647564
 10
12.34722221913542
 20
-529.8722220897542
 10
17.34722221788556
 20
-529.8722220897542
  0
LWPOLYLINE
  5
C3
330
70
100
AcDbEntity
  8
5mm
 62
    18
420
        0
370
    35
100
AcDbPolyline
 90
        4
 70
     1
 43
0.0
 10
64.84722220612265
 20
-577.3722220801233
 10
64.84722220589837
 20
-582.3722220788744
 10
-35.15277776910167
 20
-582.3722220743838
 10
-35.1527777688774
 20
-577.3722220756359
  0
LWPOLYLINE
  5
C4
330
70
100
AcDbEntity
  8
5mm
 62
    18
420
        0
370
    35
100
AcDbPolyline
 90
        4
 70
     1
 43
0.0
 10
17.34722221788556
 20
-739.9388887039065
 10
12.34722221913542
 20
-739.9388887039065
 10
12.34722221913542
 20
-639.9388887289042
 10
17.34722221788556
 20
-639.9388887289042
  0
LWPOLYLINE
  5
C5
330
70
100
AcDbEntity
  8
5mm
 62
    18
420
        0
370
    35
100
AcDbPolyline
 90
        4
 70
     1
 43
0.0
 10
64.84722220612265
 20
-687.4388887192733
 10
64.84722220589837
 20
-692.4388887180245
 10
-35.15277776910167
 20
-692.4388887135338
 10
-35.1527777688774
 20
-687.4388887147858
  0
LWPOLYLINE
  5
C6
330
70
100
AcDbEntity
  8
5mm
 62
    18
420
        0
370
    35
100
AcDbPolyline
 90
        4
 70
     1
 43
0.0
 10
17.34722221788556
 20
-850.0055553430565
 10
12.34722221913542
 20
-850.0055553430565
 10
12.34722221913542
 20
-750.0055553680541
 10
17.34722221788556
 20
-750.0055553680541
  0
LWPOLYLINE
  5
C7
330
70
100
AcDbEntity
  8
5mm
 62
    18
420
        0
370
    35
100
AcDbPolyline
 90
        4
 70
     1
 43
0.0
 10
64.84722220612265
 20
-797.5055553584232
 10
64.84722220589837
 20
-802.5055553571744
 10
-35.15277776910167
 20
-802.5055553526838
 10
-35.1527777688774
 20
-797.5055553539363
  0
LWPOLYLINE
  5
C8
330
70
100
AcDbEntity
  8
5mm
 62
    18
420
        0
370
    35
100
AcDbPolyline
 90
        4
 70
     1
 43
0.0
 10
17.34722221788556
 20
-960.0722219822065
 10
12.34722221913542
 20
-960.0722219822065
 10
12.34722221913542
 20
-860.0722220072041
 10
17.34722221788556
 20
-860.0722220072041
  0
LWPOLYLINE
  5
C9
330
70
100
AcDbEntity
  8
5mm
 62
    18
420
        0
370
    35
100
AcDbPolyline
 90
        4
 70
     1
 43
0.0
 10
64.84722220612265
 20
-907.5722219975737
 10
64.84722220589837
 20
-912.5722219963243
 10
-35.15277776910167
 20
-912.5722219918339
 10
-35.1527777688774
 20
-907.5722219930863
  0
LWPOLYLINE
  5
CA
330
70
100
AcDbEntity
  8
5mm
 62
    18
420
        0
370
    35
100
AcDbPolyline
 90
        4
 70
     1
 43
0.0
 10
17.34722221788556
 20
-1070.138888621356
 10
12.34722221913542
 20
-1070.138888621356
 10
12.34722221913542
 20
-970.1388886463542
 10
17.34722221788556
 20
-970.1388886463542
  0
LWPOLYLINE
  5
CB
330
70
100
AcDbEntity
  8
5mm
 62
    18
420
        0
370
    35
100
AcDbPolyline
 90
        4
 70
     1
 43
0.0
 10
64.84722220612265
 20
-1017.638888636724
 10
64.84722220589837
 20
-1022.638888635474
 10
-35.15277776910167
 20
-1022.638888630984
 10
-35.1527777688774
 20
-1017.638888632236
  0
LWPOLYLINE
  5
CC
330
70
100
AcDbEntity
  8
5mm
 62
    18
420
        0
370
    35
100
AcDbPolyline
 90
        4
 70
     1
 43
0.0
 10
17.34722221788556
 20
-1180.205555260506
 10
12.34722221913542
 20
-1180.205555260506
 10
12.34722221913542
 20
-1080.205555285504
 10
17.34722221788556
 20
-1080.205555285504
  0
LWPOLYLINE
  5
CD
330
70
100
AcDbEntity
  8
5mm
 62
    18
420
        0
370
    35
100
AcDbPolyline
 90
        4
 70
     1
 43
0.0
 10
64.84722220612265
 20
-1127.705555275873
 10
64.84722220589837
 20
-1132.705555274624
 10
-35.15277776910167
 20
-1132.705555270134
 10
-35.1527777688774
 20
-1127.705555271386
  0
LWPOLYLINE
  5
CE
330
70
100
AcDbEntity
  8
5mm
 62
    18
420
        0
370
    35
100
AcDbPolyline
 90
        4
 70
     1
 43
0.0
 10
127.4138888570355
 20
-519.8055554256065
 10
122.4138888582854
 20
-519.8055554256065
 10
122.4138888582854
 20
-419.8055554506042
 10
127.4138888570355
 20
-419.8055554506042
  0
LWPOLYLINE
  5
CF
330
70
100
AcDbEntity
  8
5mm
 62
    18
420
        0
370
    35
100
AcDbPolyline
 90
        4
 70
     1
 43
0.0
 10
174.9138888452726
 20
-467.3055554409732
 10
174.9138888450483
 20
-472.3055554397244
 10
74.91388887004834
 20
-472.3055554352338
 10
74.91388887027262
 20
-467.3055554364859
  0
LWPOLYLINE
  5
D0
330
70
100
AcDbEntity
  8
5mm
 62
    18
420
        0
370
    35
100
AcDbPolyline
 90
        4
 70
     1
 43
0.0
 10
127.4138888570355
 20
-629.8722220647564
 10
122.4138888582854
 20
-629.8722220647564
 10
122.4138888582854
 20
-529.8722220897542
 10
127.4138888570355
 20
-529.8722220897542
  0
LWPOLYLINE
  5
D1
330
70
100
AcDbEntity
  8
5mm
 62
    18
420
        0
370
    35
100
AcDbPolyline
 90
        4
 70
     1
 43
0.0
 10
174.9138888452726
 20
-577.3722220801233
 10
174.9138888450483
 20
-582.3722220788744
 10
74.91388887004834
 20
-582.3722220743838
 10
74.91388887027262
 20
-577.3722220756359
  0
LWPOLYLINE
  5
D2
330
70
100
AcDbEntity
  8
5mm
 62
    18
420
        0
370
    35
100
AcDbPolyline
 90
        4
 70
     1
 43
0.0
 10
127.4138888570355
 20
-739.9388887039065
 10
122.4138888582854
 20
-739.9388887039065
 10
122.4138888582854
 20
-639.9388887289042
 10
127.4138888570355
 20
-639.9388887289042
  0
LWPOLYLINE
  5
D3
330
70
100
AcDbEntity
  8
5mm
 62
    18
420
        0
370
    35
100
AcDbPolyline
 90
        4
 70
     1
 43
0.0
 10
174.9138888452726
 20
-687.4388887192733
 10
174.9138888450483
 20
-692.4388887180245
 10
74.91388887004834
 20
-692.4388887135338
 10
74.91388887027262
 20
-687.4388887147858
  0
LWPOLYLINE
  5
D4
330
70
100
AcDbEntity
  8
5mm
 62
    18
420
        0
370
    35
100
AcDbPolyline
 90
        4
 70
     1
 43
0.0
 10
127.4138888570355
 20
-850.0055553430565
 10
122.4138888582854
 20
-850.0055553430565
 10
122.4138888582854
 20
-750.0055553680541
 10
127.4138888570355
 20
-750.0055553680541
  0
LWPOLYLINE
  5
D5
330
70
100
AcDbEntity
  8
5mm
 62
    18
420
        0
370
    35
100
AcDbPolyline
 90
        4
 70
     1
 43
0.0
 10
174.9138888452726
 20
-797.5055553584232
 10
174.9138888450483
 20
-802.5055553571744
 10
74.91388887004834
 20
-802.5055553526838
 10
74.91388887027262
 20
-797.5055553539363
  0
LWPOLYLINE
  5
D6
330
70
100
AcDbEntity
  8
5mm
 62
    18
420
        0
370
    35
100
AcDbPolyline
 90
        4
 70
     1
 43
0.0
 10
127.4138888570355
 20
-960.0722219822065
 10
122.4138888582854
 20
-960.0722219822065
 10
122.4138888582854
 20
-860.0722220072041
 10
127.4138888570355
 20
-860.0722220072041
  0
LWPOLYLINE
  5
D7
330
70
100
AcDbEntity
  8
5mm
 62
    18
420
        0
370
    35
100
AcDbPolyline
 90
        4
 70
     1
 43
0.0
 10
174.9138888452726
 20
-907.5722219975737
 10
174.9138888450483
 20
-912.5722219963243
 10
74.91388887004834
 20
-912.5722219918339
 10
74.91388887027262
 20
-907.5722219930863
  0
LWPOLYLINE
  5
D8
330
70
100
AcDbEntity
  8
5mm
 62
    18
420
        0
370
    35
100
AcDbPolyline
 90
        4
 70
     1
 43
0.0
 10
127.4138888570355
 20
-1070.138888621356
 10
122.4138888582854
 20
-1070.138888621356
 10
122.4138888582854
 20
-970.1388886463542
 10
127.4138888570355
 20
-970.1388886463542
  0
LWPOLYLINE
  5
D9
330
70
100
AcDbEntity
  8
5mm
 62
    18
420
        0
370
    35
100
AcDbPolyline
 90
        4
 70
     1
 43
0.0
 10
174.9138888452726
 20
-1017.638888636724
 10
174.9138888450483
 20
-1022.638888635474
 10
74.91388887004834
 20
-1022.638888630984
 10
74.91388887027262
 20
-1017.638888632236
  0
LWPOLYLINE
  5
DA
330
70
100
AcDbEntity
  8
5mm
 62
    18
420
        0
370
    35
100
AcDbPolyline
 90
        4
 70
     1
 43
0.0
 10
127.4138888570355
 20
-1180.205555260506
 10
122.4138888582854
 20
-1180.205555260506
 10
122.4138888582854
 20
-1080.205555285504
 10
127.4138888570355
 20
-1080.205555285504
  0
LWPOLYLINE
  5
DB
330
70
100
AcDbEntity
  8
5mm
 62
    18
420
        0
370
    35
100
AcDbPolyline
 90
        4
 70
     1
 43
0.0
 10
174.9138888452726
 20
-1127.705555275873
 10
174.9138888450483
 20
-1132.705555274624
 10
74.91388887004834
 20
-1132.705555270134
 10
74.91388887027262
 20
-1127.705555271386
  0
LWPOLYLINE
  5
DC
330
70
100
AcDbEntity
  8
5mm
 62
    18
420
        0
370
    35
100
AcDbPolyline
 90
        4
 70
     1
 43
0.0
 10
237.4805554961856
 20
-519.8055554256065
 10
232.4805554974354
 20
-519.8055554256065
 10
232.4805554974354
 20
-419.8055554506042
 10
237.4805554961856
 20
-419.8055554506042
  0
LWPOLYLINE
  5
DD
330
70
100
AcDbEntity
  8
5mm
 62
    18
420
        0
370
    35
100
AcDbPolyline
 90
        4
 70
     1
 43
0.0
 10
284.9805554844227
 20
-467.3055554409732
 10
284.9805554841984
 20
-472.3055554397244
 10
184.9805555091983
 20
-472.3055554352338
 10
184.9805555094223
 20
-467.3055554364859
  0
LWPOLYLINE
  5
DE
330
70
100
AcDbEntity
  8
5mm
 62
    18
420
        0
370
    35
100
AcDbPolyline
 90
        4
 70
     1
 43
0.0
 10
237.4805554961856
 20
-629.8722220647564
 10
232.4805554974354
 20
-629.8722220647564
 10
232.4805554974354
 20
-529.8722220897542
 10
237.4805554961856
 20
-529.8722220897542
  0
LWPOLYLINE
  5
DF
330
70
100
AcDbEntity
  8
5mm
 62
    18
420
        0
370
    35
100
AcDbPolyline
 90
        4
 70
     1
 43
0.0
 10
284.9805554844227
 20
-577.3722220801233
 10
284.9805554841984
 20
-582.3722220788744
 10
184.9805555091983
 20
-582.3722220743838
 10
184.9805555094223
 20
-577.3722220756359
  0
LWPOLYLINE
  5
E0
330
70
100
AcDbEntity
  8
5mm
 62
    18
420
        0
370
    35
100
AcDbPolyline
 90
        4
 70
     1
 43
0.0
 10
237.4805554961856
 20
-739.9388887039065
 10
232.4805554974354
 20
-739.9388887039065
 10
232.4805554974354
 20
-639.9388887289042
 10
237.4805554961856
 20
-639.9388887289042
  0
LWPOLYLINE
  5
E1
330
70
100
AcDbEntity
  8
5mm
 62
    18
420
        0
370
    35
100
AcDbPolyline
 90
        4
 70
     1
 43
0.0
 10
284.9805554844227
 20
-687.4388887192733
 10
284.9805554841984
 20
-692.4388887180245
 10
184.9805555091983
 20
-692.4388887135338
 10
184.9805555094223
 20
-687.4388887147858
  0
LWPOLYLINE
  5
E2
330
70
100
AcDbEntity
  8
5mm
 62
    18
420
        0
370
    35
100
AcDbPolyline
 90
        4
 70
     1
 43
0.0
 10
237.4805554961856
 20
-850.0055553430565
 10
232.4805554974354
 20
-850.0055553430565
 10
232.4805554974354
 20
-750.0055553680541
 10
237.4805554961856
 20
-750.0055553680541
  0
LWPOLYLINE
  5
E3
330
70
100
AcDbEntity
  8
5mm
 62
    18
420
        0
370
    35
100
AcDbPolyline
 90
        4
 70
     1
 43
0.0
 10
284.9805554844227
 20
-797.5055553584232
 10
284.9805554841984
 20
-802.5055553571744
 10
184.9805555091983
 20
-802.5055553526838
 10
184.9805555094223
 20
-797.5055553539363
  0
LWPOLYLINE
  5
E4
330
70
100
AcDbEntity
  8
5mm
 62
    18
420
        0
370
    35
100
AcDbPolyline
 90
        4
 70
     1
 43
0.0
 10
237.4805554961856
 20
-960.0722219822065
 10
232.4805554974354
 20
-960.0722219822065
 10
232.4805554974354
 20
-860.0722220072041
 10
237.4805554961856
 20
-860.0722220072041
  0
LWPOLYLINE
  5
E5
330
70
100
AcDbEntity
  8
5mm
 62
    18
420
        0
370
    35
100
AcDbPolyline
 90
        4
 70
     1
 43
0.0
 10
284.9805554844227
 20
-907.5722219975737
 10
284.9805554841984
 20
-912.5722219963243
 10
184.9805555091983
 20
-912.5722219918339
 10
184.9805555094223
 20
-907.5722219930863
  0
LWPOLYLINE
  5
E6
330
70
100
AcDbEntity
  8
5mm
 62
    18
420
        0
370
    35
100
AcDbPolyline
 90
        4
 70
     1
 43
0.0
 10
237.4805554961856
 20
-1070.138888621356
 10
232.4805554974354
 20
-1070.138888621356
 10
232.4805554974354
 20
-970.1388886463542
 10
237.4805554961856
 20
-970.1388886463542
  0
LWPOLYLINE
  5
E7
330
70
100
AcDbEntity
  8
5mm
 62
    18
420
        0
370
    35
100
AcDbPolyline
 90
        4
 70
     1
 43
0.0
 10
284.9805554844227
 20
-1017.638888636724
 10
284.9805554841984
 20
-1022.638888635474
 10
184.9805555091983
 20
-1022.638888630984
 10
184.9805555094223
 20
-1017.638888632236
  0
LWPOLYLINE
  5
E8
330
70
100
AcDbEntity
  8
5mm
 62
    18
420
        0
370
    35
100
AcDbPolyline
 90
        4
 70
     1
 43
0.0
 10
237.4805554961856
 20
-1180.205555260506
 10
232.4805554974354
 20
-1180.205555260506
 10
232.4805554974354
 20
-1080.205555285504
 10
237.4805554961856
 20
-1080.205555285504
  0
LWPOLYLINE
  5
E9
330
70
100
AcDbEntity
  8
5mm
 62
    18
420
        0
370
    35
100
AcDbPolyline
 90
        4
 70
     1
 43
0.0
 10
284.9805554844227
 20
-1127.705555275873
 10
284.9805554841984
 20
-1132.705555274624
 10
184.9805555091983
 20
-1132.705555270134
 10
184.9805555094223
 20
-1127.705555271386
  0
LWPOLYLINE
  5
EA
330
70
100
AcDbEntity
  8
5mm
 62
    18
420
        0
370
    35
100
AcDbPolyline
 90
        4
 70
     1
 43
0.0
 10
347.5472221353356
 20
-519.8055554256065
 10
342.5472221365855
 20
-519.8055554256065
 10
342.5472221365855
 20
-419.8055554506042
 10
347.5472221353356
 20
-419.8055554506042
  0
LWPOLYLINE
  5
EB
330
70
100
AcDbEntity
  8
5mm
 62
    18
420
        0
370
    35
100
AcDbPolyline
 90
        4
 70
     1
 43
0.0
 10
395.0472221235714
 20
-467.3055554409732
 10
395.0472221233494
 20
-472.3055554397244
 10
295.0472221483483
 20
-472.3055554352338
 10
295.0472221485723
 20
-467.3055554364859
  0
LWPOLYLINE
  5
EC
330
70
100
AcDbEntity
  8
5mm
 62
    18
420
        0
370
    35
100
AcDbPolyline
 90
        4
 70
     1
 43
0.0
 10
347.5472221353356
 20
-629.8722220647564
 10
342.5472221365855
 20
-629.8722220647564
 10
342.5472221365855
 20
-529.8722220897542
 10
347.5472221353356
 20
-529.8722220897542
  0
LWPOLYLINE
  5
ED
330
70
100
AcDbEntity
  8
5mm
 62
    18
420
        0
370
    35
100
AcDbPolyline
 90
        4
 70
     1
 43
0.0
 10
395.0472221235714
 20
-577.3722220801233
 10
395.0472221233494
 20
-582.3722220788744
 10
295.0472221483483
 20
-582.3722220743838
 10
295.0472221485723
 20
-577.3722220756359
  0
LWPOLYLINE
  5
EE
330
70
100
AcDbEntity
  8
5mm
 62
    18
420
        0
370
    35
100
AcDbPolyline
 90
        4
 70
     1
 43
0.0
 10
347.5472221353356
 20
-739.9388887039065
 10
342.5472221365855
 20
-739.9388887039065
 10
342.5472221365855
 20
-639.9388887289042
 10
347.5472221353356
 20
-639.9388887289042
  0
LWPOLYLINE
  5
EF
330
70
100
AcDbEntity
  8
5mm
 62
    18
420
        0
370
    35
100
AcDbPolyline
 90
        4
 70
     1
 43
0.0
 10
395.0472221235714
 20
-687.4388887192733
 10
395.0472221233494
 20
-692.4388887180245
 10
295.0472221483483
 20
-692.4388887135338
 10
295.0472221485723
 20
-687.4388887147858
  0
LWPOLYLINE
  5
F0
330
70
100
AcDbEntity
  8
5mm
 62
    18
420
        0
370
    35
100
AcDbPolyline
 90
        4
 70
     1
 43
0.0
 10
347.5472221353356
 20
-850.0055553430565
 10
342.5472221365855
 20
-850.0055553430565
 10
342.5472221365855
 20
-750.0055553680541
 10
347.5472221353356
 20
-750.0055553680541
  0
LWPOLYLINE
  5
F1
330
70
100
AcDbEntity
  8
5mm
 62
    18
420
        0
370
    35
100
AcDbPolyline
 90
        4
 70
     1
 43
0.0
 10
395.0472221235714
 20
-797.5055553584232
 10
395.0472221233494
 20
-802.5055553571744
 10
295.0472221483483
 20
-802.5055553526838
 10
295.0472221485723
 20
-797.5055553539363
  0
LWPOLYLINE
  5
F2
330
70
100
AcDbEntity
  8
5mm
 62
    18
420
        0
370
    35
100
AcDbPolyline
 90
        4
 70
     1
 43
0.0
 10
347.5472221353356
 20
-960.0722219822065
 10
342.5472221365855
 20
-960.0722219822065
 10
342.5472221365855
 20
-860.0722220072041
 10
347.5472221353356
 20
-860.0722220072041
  0
LWPOLYLINE
  5
F3
330
70
100
AcDbEntity
  8
5mm
 62
    18
420
        0
370
    35
100
AcDbPolyline
 90
        4
 70
     1
 43
0.0
 10
395.0472221235714
 20
-907.5722219975737
 10
395.0472221233494
 20
-912.5722219963243
 10
295.0472221483483
 20
-912.5722219918339
 10
295.0472221485723
 20
-907.5722219930863
  0
LWPOLYLINE
  5
F4
330
70
100
AcDbEntity
  8
5mm
 62
    18
420
        0
370
    35
100
AcDbPolyline
 90
        4
 70
     1
 43
0.0
 10
347.5472221353356
 20
-1070.138888621356
 10
342.5472221365855
 20
-1070.138888621356
 10
342.5472221365855
 20
-970.1388886463542
 10
347.5472221353356
 20
-970.1388886463542
  0
LWPOLYLINE
  5
F5
330
70
100
AcDbEntity
  8
5mm
 62
    18
420
        0
370
    35
100
AcDbPolyline
 90
        4
 70
     1
 43
0.0
 10
395.0472221235714
 20
-1017.638888636724
 10
395.0472221233494
 20
-1022.638888635474
 10
295.0472221483483
 20
-1022.638888630984
 10
295.0472221485723
 20
-1017.638888632236
  0
LWPOLYLINE
  5
F6
330
70
100
AcDbEntity
  8
5mm
 62
    18
420
        0
370
    35
100
AcDbPolyline
 90
        4
 70
     1
 43
0.0
 10
347.5472221353356
 20
-1180.205555260506
 10
342.5472221365855
 20
-1180.205555260506
 10
342.5472221365855
 20
-1080.205555285504
 10
347.5472221353356
 20
-1080.205555285504
  0
LWPOLYLINE
  5
F7
330
70
100
AcDbEntity
  8
5mm
 62
    18
420
        0
370
    35
100
AcDbPolyline
 90
        4
 70
     1
 43
0.0
 10
395.0472221235714
 20
-1127.705555275873
 10
395.0472221233494
 20
-1132.705555274624
 10
295.0472221483483
 20
-1132.705555270134
 10
295.0472221485723
 20
-1127.705555271386
  0
LWPOLYLINE
  5
F8
330
70
100
AcDbEntity
  8
5mm
 62
    18
420
        0
370
    35
100
AcDbPolyline
 90
        4
 70
     1
 43
0.0
 10
457.6138887744868
 20
-519.8055554256065
 10
452.6138887757354
 20
-519.8055554256065
 10
452.6138887757354
 20
-419.8055554506042
 10
457.6138887744868
 20
-419.8055554506042
  0
LWPOLYLINE
  5
F9
330
70
100
AcDbEntity
  8
5mm
 62
    18
420
        0
370
    35
100
AcDbPolyline
 90
        4
 70
     1
 43
0.0
 10
505.1138887627214
 20
-467.3055554409732
 10
505.1138887624993
 20
-472.3055554397244
 10
405.113888787497
 20
-472.3055554352338
 10
405.1138887877229
 20
-467.3055554364859
  0
LWPOLYLINE
  5
FA
330
70
100
AcDbEntity
  8
5mm
 62
    18
420
        0
370
    35
100
AcDbPolyline
 90
        4
 70
     1
 43
0.0
 10
457.6138887744868
 20
-629.8722220647564
 10
452.6138887757354
 20
-629.8722220647564
 10
452.6138887757354
 20
-529.8722220897542
 10
457.6138887744868
 20
-529.8722220897542
  0
LWPOLYLINE
  5
FB
330
70
100
AcDbEntity
  8
5mm
 62
    18
420
        0
370
    35
100
AcDbPolyline
 90
        4
 70
     1
 43
0.0
 10
505.1138887627214
 20
-577.3722220801233
 10
505.1138887624993
 20
-582.3722220788744
 10
405.113888787497
 20
-582.3722220743838
 10
405.1138887877229
 20
-577.3722220756359
  0
LWPOLYLINE
  5
FC
330
70
100
AcDbEntity
  8
5mm
 62
    18
420
        0
370
    35
100
AcDbPolyline
 90
        4
 70
     1
 43
0.0
 10
457.6138887744868
 20
-739.9388887039065
 10
452.6138887757354
 20
-739.9388887039065
 10
452.6138887757354
 20
-639.9388887289042
 10
457.6138887744868
 20
-639.9388887289042
  0
LWPOLYLINE
  5
FD
330
70
100
AcDbEntity
  8
5mm
 62
    18
420
        0
370
    35
100
AcDbPolyline
 90
        4
 70
     1
 43
0.0
 10
505.1138887627214
 20
-687.4388887192733
 10
505.1138887624993
 20
-692.4388887180245
 10
405.113888787497
 20
-692.4388887135338
 10
405.1138887877229
 20
-687.4388887147858
  0
LWPOLYLINE
  5
FE
330
70
100
AcDbEntity
  8
5mm
 62
    18
420
        0
370
    35
100
AcDbPolyline
 90
        4
 70
     1
 43
0.0
 10
457.6138887744868
 20
-850.0055553430565
 10
452.6138887757354
 20
-850.0055553430565
 10
452.6138887757354
 20
-750.0055553680541
 10
457.6138887744868
 20
-750.0055553680541
  0
LWPOLYLINE
  5
FF
330
70
100
AcDbEntity
  8
5mm
 62
    18
420
        0
370
    35
100
AcDbPolyline
 90
        4
 70
     1
 43
0.0
 10
505.1138887627214
 20
-797.5055553584232
 10
505.1138887624993
 20
-802.5055553571744
 10
405.113888787497
 20
-802.5055553526838
 10
405.1138887877229
 20
-797.5055553539363
  0
LWPOLYLINE
  5
100
330
70
100
AcDbEntity
  8
5mm
 62
    18
420
        0
370
    35
100
AcDbPolyline
 90
        4
 70
     1
 43
0.0
 10
457.6138887744868
 20
-960.0722219822065
 10
452.6138887757354
 20
-960.0722219822065
 10
452.6138887757354
 20
-860.0722220072041
 10
457.6138887744868
 20
-860.0722220072041
  0
LWPOLYLINE
  5
101
330
70
100
AcDbEntity
  8
5mm
 62
    18
420
        0
370
    35
100
AcDbPolyline
 90
        4
 70
     1
 43
0.0
 10
505.1138887627214
 20
-907.5722219975737
 10
505.1138887624993
 20
-912.5722219963243
 10
405.113888787497
 20
-912.5722219918339
 10
405.1138887877229
 20
-907.5722219930863
  0
LWPOLYLINE
  5
102
330
70
100
AcDbEntity
  8
5mm
 62
    18
420
        0
370
    35
100
AcDbPolyline
 90
        4
 70
     1
 43
0.0
 10
457.6138887744868
 20
-1070.138888621356
 10
452.6138887757354
 20
-1070.138888621356
 10
452.6138887757354
 20
-970.1388886463542
 10
457.6138887744868
 20
-970.1388886463542
  0
LWPOLYLINE
  5
103
330
70
100
AcDbEntity
  8
5mm
 62
    18
420
        0
370
    35
100
AcDbPolyline
 90
        4
 70
     1
 43
0.0
 10
505.1138887627214
 20
-1017.638888636724
 10
505.1138887624993
 20
-1022.638888635474
 10
405.113888787497
 20
-1022.638888630984
 10
405.1138887877229
 20
-1017.638888632236
  0
LWPOLYLINE
  5
104
330
70
100
AcDbEntity
  8
5mm
 62
    18
420
        0
370
    35
100
AcDbPolyline
 90
        4
 70
     1
 43
0.0
 10
457.6138887744868
 20
-1180.205555260506
 10
452.6138887757354
 20
-1180.205555260506
 10
452.6138887757354
 20
-1080.205555285504
 10
457.6138887744868
 20
-1080.205555285504
  0
LWPOLYLINE
  5
105
330
70
100
AcDbEntity
  8
5mm
 62
    18
420
        0
370
    35
100
AcDbPolyline
 90
        4
 70
     1
 43
0.0
 10
505.1138887627214
 20
-1127.705555275873
 10
505.1138887624993
 20
-1132.705555274624
 10
405.113888787497
 20
-1132.705555270134
 10
405.1138887877229
 20
-1127.705555271386
  0
LWPOLYLINE
  5
106
330
70
100
AcDbEntity
  8
5mm
 62
    18
420
        0
370
    35
100
AcDbPolyline
 90
        4
 70
     1
 43
0.0
 10
567.6805554136368
 20
-519.8055554256065
 10
562.6805554148854
 20
-519.8055554256065
 10
562.6805554148854
 20
-419.8055554506042
 10
567.6805554136368
 20
-419.8055554506042
  0
LWPOLYLINE
  5
107
330
70
100
AcDbEntity
  8
5mm
 62
    18
420
        0
370
    35
100
AcDbPolyline
 90
        4
 70
     1
 43
0.0
 10
615.1805554018713
 20
-467.3055554409732
 10
615.1805554016493
 20
-472.3055554397244
 10
515.180555426647
 20
-472.3055554352338
 10
515.1805554268729
 20
-467.3055554364859
  0
LWPOLYLINE
  5
108
330
70
100
AcDbEntity
  8
5mm
 62
    18
420
        0
370
    35
100
AcDbPolyline
 90
        4
 70
     1
 43
0.0
 10
567.6805554136368
 20
-629.8722220647564
 10
562.6805554148854
 20
-629.8722220647564
 10
562.6805554148854
 20
-529.8722220897542
 10
567.6805554136368
 20
-529.8722220897542
  0
LWPOLYLINE
  5
109
330
70
100
AcDbEntity
  8
5mm
 62
    18
420
        0
370
    35
100
AcDbPolyline
 90
        4
 70
     1
 43
0.0
 10
615.1805554018713
 20
-577.3722220801233
 10
615.1805554016493
 20
-582.3722220788744
 10
515.180555426647
 20
-582.3722220743838
 10
515.1805554268729
 20
-577.3722220756359
  0
LWPOLYLINE
  5
10A
330
70
100
AcDbEntity
  8
5mm
 62
    18
420
        0
370
    35
100
AcDbPolyline
 90
        4
 70
     1
 43
0.0
 10
567.6805554136368
 20
-739.9388887039065
 10
562.6805554148854
 20
-739.9388887039065
 10
562.6805554148854
 20
-639.9388887289042
 10
567.6805554136368
 20
-639.9388887289042
  0
LWPOLYLINE
  5
10B
330
70
100
AcDbEntity
  8
5mm
 62
    18
420
        0
370
    35
100
AcDbPolyline
 90
        4
 70
     1
 43
0.0
 10
615.1805554018713
 20
-687.4388887192733
 10
615.1805554016493
 20
-692.4388887180245
 10
515.180555426647
 20
-692.4388887135338
 10
515.1805554268729
 20
-687.4388887147858
  0
LWPOLYLINE
  5
10C
330
70
100
AcDbEntity
  8
5mm
 62
    18
420
        0
370
    35
100
AcDbPolyline
 90
        4
 70
     1
 43
0.0
 10
567.6805554136368
 20
-850.0055553430565
 10
562.6805554148854
 20
-850.0055553430565
 10
562.6805554148854
 20
-750.0055553680541
 10
567.6805554136368
 20
-750.0055553680541
  0
LWPOLYLINE
  5
10D
330
70
100
AcDbEntity
  8
5mm
 62
    18
420
        0
370
    35
100
AcDbPolyline
 90
        4
 70
     1
 43
0.0
 10
615.1805554018713
 20
-797.5055553584232
 10
615.1805554016493
 20
-802.5055553571744
 10
515.180555426647
 20
-802.5055553526838
 10
515.1805554268729
 20
-797.5055553539363
  0
LWPOLYLINE
  5
10E
330
70
100
AcDbEntity
  8
5mm
 62
    18
420
        0
370
    35
100
AcDbPolyline
 90
        4
 70
     1
 43
0.0
 10
567.6805554136368
 20
-960.0722219822065
 10
562.6805554148854
 20
-960.0722219822065
 10
562.6805554148854
 20
-860.0722220072041
 10
567.6805554136368
 20
-860.0722220072041
  0
LWPOLYLINE
  5
10F
330
70
100
AcDbEntity
  8
5mm
 62
    18
420
        0
370
    35
100
AcDbPolyline
 90
        4
 70
     1
 43
0.0
 10
615.1805554018713
 20
-907.5722219975737
 10
615.1805554016493
 20
-912.5722219963243
 10
515.180555426647
 20
-912.5722219918339
 10
515.1805554268729
 20
-907.5722219930863
  0
LWPOLYLINE
  5
110
330
70
100
AcDbEntity
  8
5mm
 62
    18
420
        0
370
    35
100
AcDbPolyline
 90
        4
 70
     1
 43
0.0
 10
567.6805554136368
 20
-1070.138888621356
 10
562.6805554148854
 20
-1070.138888621356
 10
562.6805554148854
 20
-970.1388886463542
 10
567.6805554136368
 20
-970.1388886463542
  0
LWPOLYLINE
  5
111
330
70
100
AcDbEntity
  8
5mm
 62
    18
420
        0
370
    35
100
AcDbPolyline
 90
        4
 70
     1
 43
0.0
 10
615.1805554018713
 20
-1017.638888636724
 10
615.1805554016493
 20
-1022.638888635474
 10
515.180555426647
 20
-1022.638888630984
 10
515.1805554268729
 20
-1017.638888632236
  0
LWPOLYLINE
  5
112
330
70
100
AcDbEntity
  8
5mm
 62
    18
420
        0
370
    35
100
AcDbPolyline
 90
        4
 70
     1
 43
0.0
 10
567.6805554136368
 20
-1180.205555260506
 10
562.6805554148854
 20
-1180.205555260506
 10
562.6805554148854
 20
-1080.205555285504
 10
567.6805554136368
 20
-1080.205555285504
  0
LWPOLYLINE
  5
113
330
70
100
AcDbEntity
  8
5mm
 62
    18
420
        0
370
    35
100
AcDbPolyline
 90
        4
 70
     1
 43
0.0
 10
615.1805554018713
 20
-1127.705555275873
 10
615.1805554016493
 20
-1132.705555274624
 10
515.180555426647
 20
-1132.705555270134
 10
515.1805554268729
 20
-1127.705555271386
  0
LWPOLYLINE
  5
114
330
70
100
AcDbEntity
  8
5mm
 62
    18
420
        0
370
    35
100
AcDbPolyline
 90
        4
 70
     1
 43
0.0
 10
677.7472220527869
 20
-519.8055554256065
 10
672.7472220540354
 20
-519.8055554256065
 10
672.7472220540354
 20
-419.8055554506042
 10
677.7472220527869
 20
-419.8055554506042
  0
LWPOLYLINE
  5
115
330
70
100
AcDbEntity
  8
5mm
 62
    18
420
        0
370
    35
100
AcDbPolyline
 90
        4
 70
     1
 43
0.0
 10
725.2472220410213
 20
-467.3055554409732
 10
725.2472220407993
 20
-472.3055554397244
 10
625.2472220657971
 20
-472.3055554352338
 10
625.2472220660229
 20
-467.3055554364859
  0
LWPOLYLINE
  5
116
330
70
100
AcDbEntity
  8
5mm
 62
    18
420
        0
370
    35
100
AcDbPolyline
 90
        4
 70
     1
 43
0.0
 10
677.7472220527869
 20
-629.8722220647564
 10
672.7472220540354
 20
-629.8722220647564
 10
672.7472220540354
 20
-529.8722220897542
 10
677.7472220527869
 20
-529.8722220897542
  0
LWPOLYLINE
  5
117
330
70
100
AcDbEntity
  8
5mm
 62
    18
420
        0
370
    35
100
AcDbPolyline
 90
        4
 70
     1
 43
0.0
 10
725.2472220410213
 20
-577.3722220801233
 10
725.2472220407993
 20
-582.3722220788744
 10
625.2472220657971
 20
-582.3722220743838
 10
625.2472220660229
 20
-577.3722220756359
  0
LWPOLYLINE
  5
118
330
70
100
AcDbEntity
  8
5mm
 62
    18
420
        0
370
    35
100
AcDbPolyline
 90
        4
 70
     1
 43
0.0
 10
677.7472220527869
 20
-739.9388887039065
 10
672.7472220540354
 20
-739.9388887039065
 10
672.7472220540354
 20
-639.9388887289042
 10
677.7472220527869
 20
-639.9388887289042
  0
LWPOLYLINE
  5
119
330
70
100
AcDbEntity
  8
5mm
 62
    18
420
        0
370
    35
100
AcDbPolyline
 90
        4
 70
     1
 43
0.0
 10
725.2472220410213
 20
-687.4388887192733
 10
725.2472220407993
 20
-692.4388887180245
 10
625.2472220657971
 20
-692.4388887135338
 10
625.2472220660229
 20
-687.4388887147858
  0
LWPOLYLINE
  5
11A
330
70
100
AcDbEntity
  8
5mm
 62
    18
420
        0
370
    35
100
AcDbPolyline
 90
        4
 70
     1
 43
0.0
 10
677.7472220527869
 20
-850.0055553430565
 10
672.7472220540354
 20
-850.0055553430565
 10
672.7472220540354
 20
-750.0055553680541
 10
677.7472220527869
 20
-750.0055553680541
  0
LWPOLYLINE
  5
11B
330
70
100
AcDbEntity
  8
5mm
 62
    18
420
        0
370
    35
100
AcDbPolyline
 90
        4
 70
     1
 43
0.0
 10
725.2472220410213
 20
-797.5055553584232
 10
725.2472220407993
 20
-802.5055553571744
 10
625.2472220657971
 20
-802.5055553526838
 10
625.2472220660229
 20
-797.5055553539363
  0
LWPOLYLINE
  5
11C
330
70
100
AcDbEntity
  8
5mm
 62
    18
420
        0
370
    35
100
AcDbPolyline
 90
        4
 70
     1
 43
0.0
 10
677.7472220527869
 20
-960.0722219822065
 10
672.7472220540354
 20
-960.0722219822065
 10
672.7472220540354
 20
-860.0722220072041
 10
677.7472220527869
 20
-860.0722220072041
  0
LWPOLYLINE
  5
11D
330
70
100
AcDbEntity
  8
5mm
 62
    18
420
        0
370
    35
100
AcDbPolyline
 90
        4
 70
     1
 43
0.0
 10
725.2472220410213
 20
-907.5722219975737
 10
725.2472220407993
 20
-912.5722219963243
 10
625.2472220657971
 20
-912.5722219918339
 10
625.2472220660229
 20
-907.5722219930863
  0
LWPOLYLINE
  5
11E
330
70
100
AcDbEntity
  8
5mm
 62
    18
420
        0
370
    35
100
AcDbPolyline
 90
        4
 70
     1
 43
0.0
 10
677.7472220527869
 20
-1070.138888621356
 10
672.7472220540354
 20
-1070.138888621356
 10
672.7472220540354
 20
-970.1388886463542
 10
677.7472220527869
 20
-970.1388886463542
  0
LWPOLYLINE
  5
11F
330
70
100
AcDbEntity
  8
5mm
 62
    18
420
        0
370
    35
100
AcDbPolyline
 90
        4
 70
     1
 43
0.0
 10
725.2472220410213
 20
-1017.638888636724
 10
725.2472220407993
 20
-1022.638888635474
 10
625.2472220657971
 20
-1022.638888630984
 10
625.2472220660229
 20
-1017.638888632236
  0
LWPOLYLINE
  5
120
330
70
100
AcDbEntity
  8
5mm
 62
    18
420
        0
370
    35
100
AcDbPolyline
 90
        4
 70
     1
 43
0.0
 10
677.7472220527869
 20
-1180.205555260506
 10
672.7472220540354
 20
-1180.205555260506
 10
672.7472220540354
 20
-1080.205555285504
 10
677.7472220527869
 20
-1080.205555285504
  0
LWPOLYLINE
  5
121
330
70
100
AcDbEntity
  8
5mm
 62
    18
420
        0
370
    35
100
AcDbPolyline
 90
        4
 70
     1
 43
0.0
 10
725.2472220410213
 20
-1127.705555275873
 10
725.2472220407993
 20
-1132.705555274624
 10
625.2472220657971
 20
-1132.705555270134
 10
625.2472220660229
 20
-1127.705555271386
  0
LWPOLYLINE
  5
122
330
70
100
AcDbEntity
  8
5mm
 62
    18
420
        0
370
    35
100
AcDbPolyline
 90
        4
 70
     1
 43
0.0
 10
787.8138886919361
 20
-519.8055554256065
 10
782.8138886931855
 20
-519.8055554256065
 10
782.8138886931855
 20
-419.8055554506042
 10
787.8138886919361
 20
-419.8055554506042
  0
LWPOLYLINE
  5
123
330
70
100
AcDbEntity
  8
5mm
 62
    18
420
        0
370
    35
100
AcDbPolyline
 90
        4
 70
     1
 43
0.0
 10
835.3138886801714
 20
-467.3055554409732
 10
835.3138886799493
 20
-472.3055554397244
 10
735.313888704947
 20
-472.3055554352338
 10
735.313888705173
 20
-467.3055554364859
  0
LWPOLYLINE
  5
124
330
70
100
AcDbEntity
  8
5mm
 62
    18
420
        0
370
    35
100
AcDbPolyline
 90
        4
 70
     1
 43
0.0
 10
787.8138886919361
 20
-629.8722220647564
 10
782.8138886931855
 20
-629.8722220647564
 10
782.8138886931855
 20
-529.8722220897542
 10
787.8138886919361
 20
-529.8722220897542
  0
LWPOLYLINE
  5
125
330
70
100
AcDbEntity
  8
5mm
 62
    18
420
        0
370
    35
100
AcDbPolyline
 90
        4
 70
     1
 43
0.0
 10
835.3138886801714
 20
-577.3722220801233
 10
835.3138886799493
 20
-582.3722220788744
 10
735.313888704947
 20
-582.3722220743838
 10
735.313888705173
 20
-577.3722220756359
  0
LWPOLYLINE
  5
126
330
70
100
AcDbEntity
  8
5mm
 62
    18
420
        0
370
    35
100
AcDbPolyline
 90
        4
 70
     1
 43
0.0
 10
787.8138886919361
 20
-739.9388887039065
 10
782.8138886931855
 20
-739.9388887039065
 10
782.8138886931855
 20
-639.9388887289042
 10
787.8138886919361
 20
-639.9388887289042
  0
LWPOLYLINE
  5
127
330
70
100
AcDbEntity
  8
5mm
 62
    18
420
        0
370
    35
100
AcDbPolyline
 90
        4
 70
     1
 43
0.0
 10
835.3138886801714
 20
-687.4388887192733
 10
835.3138886799493
 20
-692.4388887180245
 10
735.313888704947
 20
-692.4388887135338
 10
735.313888705173
 20
-687.4388887147858
  0
LWPOLYLINE
  5
128
330
70
100
AcDbEntity
  8
5mm
 62
    18
420
        0
370
    35
100
AcDbPolyline
 90
        4
 70
     1
 43
0.0
 10
787.8138886919361
 20
-850.0055553430565
 10
782.8138886931855
 20
-850.0055553430565
 10
782.8138886931855
 20
-750.0055553680541
 10
787.8138886919361
 20
-750.0055553680541
  0
LWPOLYLINE
  5
129
330
70
100
AcDbEntity
  8
5mm
 62
    18
420
        0
370
    35
100
AcDbPolyline
 90
        4
 70
     1
 43
0.0
 10
835.3138886801714
 20
-797.5055553584232
 10
835.3138886799493
 20
-802.5055553571744
 10
735.313888704947
 20
-802.5055553526838
 10
735.313888705173
 20
-797.5055553539363
  0
LWPOLYLINE
  5
12A
330
70
100
AcDbEntity
  8
5mm
 62
    18
420
        0
370
    35
100
AcDbPolyline
 90
        4
 70
     1
 43
0.0
 10
787.8138886919361
 20
-960.0722219822065
 10
782.8138886931855
 20
-960.0722219822065
 10
782.8138886931855
 20
-860.0722220072041
 10
787.8138886919361
 20
-860.0722220072041
  0
LWPOLYLINE
  5
12B
330
70
100
AcDbEntity
  8
5mm
 62
    18
420
        0
370
    35
100
AcDbPolyline
 90
        4
 70
     1
 43
0.0
 10
835.3138886801714
 20
-907.5722219975737
 10
835.3138886799493
 20
-912.5722219963243
 10
735.313888704947
 20
-912.5722219918339
 10
735.313888705173
 20
-907.5722219930863
  0
LWPOLYLINE
  5
12C
330
70
100
AcDbEntity
  8
5mm
 62
    18
420
        0
370
    35
100
AcDbPolyline
 90
        4
 70
     1
 43
0.0
 10
787.8138886919361
 20
-1070.138888621356
 10
782.8138886931855
 20
-1070.138888621356
 10
782.8138886931855
 20
-970.1388886463542
 10
787.8138886919361
 20
-970.1388886463542
  0
LWPOLYLINE
  5
12D
330
70
100
AcDbEntity
  8
5mm
 62
    18
420
        0
370
    35
100
AcDbPolyline
 90
        4
 70
     1
 43
0.0
 10
835.3138886801714
 20
-1017.638888636724
 10
835.3138886799493
 20
-1022.638888635474
 10
735.313888704947
 20
-1022.638888630984
 10
735.313888705173
 20
-1017.638888632236
  0
LWPOLYLINE
  5
12E
330
70
100
AcDbEntity
  8
5mm
 62
    18
420
        0
370
    35
100
AcDbPolyline
 90
        4
 70
     1
 43
0.0
 10
787.8138886919361
 20
-1180.205555260506
 10
782.8138886931855
 20
-1180.205555260506
 10
782.8138886931855
 20
-1080.205555285504
 10
787.8138886919361
 20
-1080.205555285504
  0
LWPOLYLINE
  5
12F
330
70
100
AcDbEntity
  8
5mm
 62
    18
420
        0
370
    35
100
AcDbPolyline
 90
        4
 70
     1
 43
0.0
 10
835.3138886801714
 20
-1127.705555275873
 10
835.3138886799493
 20
-1132.705555274624
 10
735.313888704947
 20
-1132.705555270134
 10
735.313888705173
 20
-1127.705555271386
  0
LWPOLYLINE
  5
130
330
70
100
AcDbEntity
  8
5mm
 62
    18
420
        0
370
    35
100
AcDbPolyline
 90
        4
 70
     1
 43
0.0
 10
897.8805553310863
 20
-519.8055554256065
 10
892.8805553323355
 20
-519.8055554256065
 10
892.8805553323355
 20
-419.8055554506042
 10
897.8805553310863
 20
-419.8055554506042
  0
LWPOLYLINE
  5
131
330
70
100
AcDbEntity
  8
5mm
 62
    18
420
        0
370
    35
100
AcDbPolyline
 90
        4
 70
     1
 43
0.0
 10
945.3805553193214
 20
-467.3055554409732
 10
945.3805553190994
 20
-472.3055554397244
 10
845.380555344097
 20
-472.3055554352338
 10
845.3805553443229
 20
-467.3055554364859
  0
LWPOLYLINE
  5
132
330
70
100
AcDbEntity
  8
5mm
 62
    18
420
        0
370
    35
100
AcDbPolyline
 90
        4
 70
     1
 43
0.0
 10
897.8805553310863
 20
-629.8722220647564
 10
892.8805553323355
 20
-629.8722220647564
 10
892.8805553323355
 20
-529.8722220897542
 10
897.8805553310863
 20
-529.8722220897542
  0
LWPOLYLINE
  5
133
330
70
100
AcDbEntity
  8
5mm
 62
    18
420
        0
370
    35
100
AcDbPolyline
 90
        4
 70
     1
 43
0.0
 10
945.3805553193214
 20
-577.3722220801233
 10
945.3805553190994
 20
-582.3722220788744
 10
845.380555344097
 20
-582.3722220743838
 10
845.3805553443229
 20
-577.3722220756359
  0
LWPOLYLINE
  5
134
330
70
100
AcDbEntity
  8
5mm
 62
    18
420
        0
370
    35
100
AcDbPolyline
 90
        4
 70
     1
 43
0.0
 10
897.8805553310863
 20
-739.9388887039065
 10
892.8805553323355
 20
-739.9388887039065
 10
892.8805553323355
 20
-639.9388887289042
 10
897.8805553310863
 20
-639.9388887289042
  0
LWPOLYLINE
  5
135
330
70
100
AcDbEntity
  8
5mm
 62
    18
420
        0
370
    35
100
AcDbPolyline
 90
        4
 70
     1
 43
0.0
 10
945.3805553193214
 20
-687.4388887192733
 10
945.3805553190994
 20
-692.4388887180245
 10
845.380555344097
 20
-692.4388887135338
 10
845.3805553443229
 20
-687.4388887147858
  0
LWPOLYLINE
  5
136
330
70
100
AcDbEntity
  8
5mm
 62
    18
420
        0
370
    35
100
AcDbPolyline
 90
        4
 70
     1
 43
0.0
 10
897.8805553310863
 20
-850.0055553430565
 10
892.8805553323355
 20
-850.0055553430565
 10
892.8805553323355
 20
-750.0055553680541
 10
897.8805553310863
 20
-750.0055553680541
  0
LWPOLYLINE
  5
137
330
70
100
AcDbEntity
  8
5mm
 62
    18
420
        0
370
    35
100
AcDbPolyline
 90
        4
 70
     1
 43
0.0
 10
945.3805553193214
 20
-797.5055553584232
 10
945.3805553190994
 20
-802.5055553571744
 10
845.380555344097
 20
-802.5055553526838
 10
845.3805553443229
 20
-797.5055553539363
  0
LWPOLYLINE
  5
138
330
70
100
AcDbEntity
  8
5mm
 62
    18
420
        0
370
    35
100
AcDbPolyline
 90
        4
 70
     1
 43
0.0
 10
897.8805553310863
 20
-960.0722219822065
 10
892.8805553323355
 20
-960.0722219822065
 10
892.8805553323355
 20
-860.0722220072041
 10
897.8805553310863
 20
-860.0722220072041
  0
LWPOLYLINE
  5
139
330
70
100
AcDbEntity
  8
5mm
 62
    18
420
        0
370
    35
100
AcDbPolyline
 90
        4
 70
     1
 43
0.0
 10
945.3805553193214
 20
-907.5722219975737
 10
945.3805553190994
 20
-912.5722219963243
 10
845.380555344097
 20
-912.5722219918339
 10
845.3805553443229
 20
-907.5722219930863
  0
LWPOLYLINE
  5
13A
330
70
100
AcDbEntity
  8
5mm
 62
    18
420
        0
370
    35
100
AcDbPolyline
 90
        4
 70
     1
 43
0.0
 10
897.8805553310863
 20
-1070.138888621356
 10
892.8805553323355
 20
-1070.138888621356
 10
892.8805553323355
 20
-970.1388886463542
 10
897.8805553310863
 20
-970.1388886463542
  0
LWPOLYLINE
  5
13B
330
70
100
AcDbEntity
  8
5mm
 62
    18
420
        0
370
    35
100
AcDbPolyline
 90
        4
 70
     1
 43
0.0
 10
945.3805553193214
 20
-1017.638888636724
 10
945.3805553190994
 20
-1022.638888635474
 10
845.380555344097
 20
-1022.638888630984
 10
845.3805553443229
 20
-1017.638888632236
  0
LWPOLYLINE
  5
13C
330
70
100
AcDbEntity
  8
5mm
 62
    18
420
        0
370
    35
100
AcDbPolyline
 90
        4
 70
     1
 43
0.0
 10
897.8805553310863
 20
-1180.205555260506
 10
892.8805553323355
 20
-1180.205555260506
 10
892.8805553323355
 20
-1080.205555285504
 10
897.8805553310863
 20
-1080.205555285504
  0
LWPOLYLINE
  5
13D
330
70
100
AcDbEntity
  8
5mm
 62
    18
420
        0
370
    35
100
AcDbPolyline
 90
        4
 70
     1
 43
0.0
 10
945.3805553193214
 20
-1127.705555275873
 10
945.3805553190994
 20
-1132.705555274624
 10
845.380555344097
 20
-1132.705555270134
 10
845.3805553443229
 20
-1127.705555271386
  0
LWPOLYLINE
  5
13E
330
70
100
AcDbEntity
  8
5mm
 62
    18
420
        0
370
    35
100
AcDbPolyline
 90
        4
 70
     1
 43
0.0
 10
1007.947221970236
 20
-519.8055554256065
 10
1002.947221971485
 20
-519.8055554256065
 10
1002.947221971485
 20
-419.8055554506042
 10
1007.947221970236
 20
-419.8055554506042
  0
LWPOLYLINE
  5
13F
330
70
100
AcDbEntity
  8
5mm
 62
    18
420
        0
370
    35
100
AcDbPolyline
 90
        4
 70
     1
 43
0.0
 10
1055.447221958471
 20
-467.3055554409732
 10
1055.447221958249
 20
-472.3055554397244
 10
955.447221983247
 20
-472.3055554352338
 10
955.447221983473
 20
-467.3055554364859
  0
LWPOLYLINE
  5
140
330
70
100
AcDbEntity
  8
5mm
 62
    18
420
        0
370
    35
100
AcDbPolyline
 90
        4
 70
     1
 43
0.0
 10
1007.947221970236
 20
-629.8722220647564
 10
1002.947221971485
 20
-629.8722220647564
 10
1002.947221971485
 20
-529.8722220897542
 10
1007.947221970236
 20
-529.8722220897542
  0
LWPOLYLINE
  5
141
330
70
100
AcDbEntity
  8
5mm
 62
    18
420
        0
370
    35
100
AcDbPolyline
 90
        4
 70
     1
 43
0.0
 10
1055.447221958471
 20
-577.3722220801233
 10
1055.447221958249
 20
-582.3722220788744
 10
955.447221983247
 20
-582.3722220743838
 10
955.447221983473
 20
-577.3722220756359
  0
LWPOLYLINE
  5
142
330
70
100
AcDbEntity
  8
5mm
 62
    18
420
        0
370
    35
100
AcDbPolyline
 90
        4
 70
     1
 43
0.0
 10
1007.947221970236
 20
-739.9388887039065
 10
1002.947221971485
 20
-739.9388887039065
 10
1002.947221971485
 20
-639.9388887289042
 10
1007.947221970236
 20
-639.9388887289042
  0
LWPOLYLINE
  5
143
330
70
100
AcDbEntity
  8
5mm
 62
    18
420
        0
370
    35
100
AcDbPolyline
 90
        4
 70
     1
 43
0.0
 10
1055.447221958471
 20
-687.4388887192733
 10
1055.447221958249
 20
-692.4388887180245
 10
955.447221983247
 20
-692.4388887135338
 10
955.447221983473
 20
-687.4388887147858
  0
LWPOLYLINE
  5
144
330
70
100
AcDbEntity
  8
5mm
 62
    18
420
        0
370
    35
100
AcDbPolyline
 90
        4
 70
     1
 43
0.0
 10
1007.947221970236
 20
-850.0055553430565
 10
1002.947221971485
 20
-850.0055553430565
 10
1002.947221971485
 20
-750.0055553680541
 10
1007.947221970236
 20
-750.0055553680541
  0
LWPOLYLINE
  5
145
330
70
100
AcDbEntity
  8
5mm
 62
    18
420
        0
370
    35
100
AcDbPolyline
 90
        4
 70
     1
 43
0.0
 10
1055.447221958471
 20
-797.5055553584232
 10
1055.447221958249
 20
-802.5055553571744
 10
955.447221983247
 20
-802.5055553526838
 10
955.447221983473
 20
-797.5055553539363
  0
LWPOLYLINE
  5
146
330
70
100
AcDbEntity
  8
5mm
 62
    18
420
        0
370
    35
100
AcDbPolyline
 90
        4
 70
     1
 43
0.0
 10
1007.947221970236
 20
-960.0722219822065
 10
1002.947221971485
 20
-960.0722219822065
 10
1002.947221971485
 20
-860.0722220072041
 10
1007.947221970236
 20
-860.0722220072041
  0
LWPOLYLINE
  5
147
330
70
100
AcDbEntity
  8
5mm
 62
    18
420
        0
370
    35
100
AcDbPolyline
 90
        4
 70
     1
 43
0.0
 10
1055.447221958471
 20
-907.5722219975737
 10
1055.447221958249
 20
-912.5722219963243
 10
955.447221983247
 20
-912.5722219918339
 10
955.447221983473
 20
-907.5722219930863
  0
LWPOLYLINE
  5
148
330
70
100
AcDbEntity
  8
5mm
 62
    18
420
        0
370
    35
100
AcDbPolyline
 90
        4
 70
     1
 43
0.0
 10
1007.947221970236
 20
-1070.138888621356
 10
1002.947221971485
 20
-1070.138888621356
 10
1002.947221971485
 20
-970.1388886463542
 10
1007.947221970236
 20
-970.1388886463542
  0
LWPOLYLINE
  5
149
330
70
100
AcDbEntity
  8
5mm
 62
    18
420
        0
370
    35
100
AcDbPolyline
 90
        4
 70
     1
 43
0.0
 10
1055.447221958471
 20
-1017.638888636724
 10
1055.447221958249
 20
-1022.638888635474
 10
955.447221983247
 20
-1022.638888630984
 10
955.447221983473
 20
-1017.638888632236
  0
LWPOLYLINE
  5
14A
330
70
100
AcDbEntity
  8
5mm
 62
    18
420
        0
370
    35
100
AcDbPolyline
 90
        4
 70
     1
 43
0.0
 10
1007.947221970236
 20
-1180.205555260506
 10
1002.947221971485
 20
-1180.205555260506
 10
1002.947221971485
 20
-1080.205555285504
 10
1007.947221970236
 20
-1080.205555285504
  0
LWPOLYLINE
  5
14B
330
70
100
AcDbEntity
  8
5mm
 62
    18
420
        0
370
    35
100
AcDbPolyline
 90
        4
 70
     1
 43
0.0
 10
1055.447221958471
 20
-1127.705555275873
 10
1055.447221958249
 20
-1132.705555274624
 10
955.447221983247
 20
-1132.705555270134
 10
955.447221983473
 20
-1127.705555271386
  0
LWPOLYLINE
  5
14C
330
70
100
AcDbEntity
  8
5mm
 62
    18
420
        0
370
    35
100
AcDbPolyline
 90
        4
 70
     1
 43
0.0
 10
1118.013888609386
 20
-519.8055554256065
 10
1113.013888610635
 20
-519.8055554256065
 10
1113.013888610635
 20
-419.8055554506042
 10
1118.013888609386
 20
-419.8055554506042
  0
LWPOLYLINE
  5
14D
330
70
100
AcDbEntity
  8
5mm
 62
    18
420
        0
370
    35
100
AcDbPolyline
 90
        4
 70
     1
 43
0.0
 10
1165.513888597621
 20
-467.3055554409732
 10
1165.513888597399
 20
-472.3055554397244
 10
1065.513888622397
 20
-472.3055554352338
 10
1065.513888622623
 20
-467.3055554364859
  0
LWPOLYLINE
  5
14E
330
70
100
AcDbEntity
  8
5mm
 62
    18
420
        0
370
    35
100
AcDbPolyline
 90
        4
 70
     1
 43
0.0
 10
1118.013888609386
 20
-629.8722220647564
 10
1113.013888610635
 20
-629.8722220647564
 10
1113.013888610635
 20
-529.8722220897542
 10
1118.013888609386
 20
-529.8722220897542
  0
LWPOLYLINE
  5
14F
330
70
100
AcDbEntity
  8
5mm
 62
    18
420
        0
370
    35
100
AcDbPolyline
 90
        4
 70
     1
 43
0.0
 10
1165.513888597621
 20
-577.3722220801233
 10
1165.513888597399
 20
-582.3722220788744
 10
1065.513888622397
 20
-582.3722220743838
 10
1065.513888622623
 20
-577.3722220756359
  0
LWPOLYLINE
  5
150
330
70
100
AcDbEntity
  8
5mm
 62
    18
420
        0
370
    35
100
AcDbPolyline
 90
        4
 70
     1
 43
0.0
 10
1118.013888609386
 20
-739.9388887039065
 10
1113.013888610635
 20
-739.9388887039065
 10
1113.013888610635
 20
-639.9388887289042
 10
1118.013888609386
 20
-639.9388887289042
  0
LWPOLYLINE
  5
151
330
70
100
AcDbEntity
  8
5mm
 62
    18
420
        0
370
    35
100
AcDbPolyline
 90
        4
 70
     1
 43
0.0
 10
1165.513888597621
 20
-687.4388887192733
 10
1165.513888597399
 20
-692.4388887180245
 10
1065.513888622397
 20
-692.4388887135338
 10
1065.513888622623
 20
-687.4388887147858
  0
LWPOLYLINE
  5
152
330
70
100
AcDbEntity
  8
5mm
 62
    18
420
        0
370
    35
100
AcDbPolyline
 90
        4
 70
     1
 43
0.0
 10
1118.013888609386
 20
-850.0055553430565
 10
1113.013888610635
 20
-850.0055553430565
 10
1113.013888610635
 20
-750.0055553680541
 10
1118.013888609386
 20
-750.0055553680541
  0
LWPOLYLINE
  5
153
330
70
100
AcDbEntity
  8
5mm
 62
    18
420
        0
370
    35
100
AcDbPolyline
 90
        4
 70
     1
 43
0.0
 10
1165.513888597621
 20
-797.5055553584232
 10
1165.513888597399
 20
-802.5055553571744
 10
1065.513888622397
 20
-802.5055553526838
 10
1065.513888622623
 20
-797.5055553539363
  0
LWPOLYLINE
  5
154
330
70
100
AcDbEntity
  8
5mm
 62
    18
420
        0
370
    35
100
AcDbPolyline
 90
        4
 70
     1
 43
0.0
 10
1118.013888609386
 20
-960.0722219822065
 10
1113.013888610635
 20
-960.0722219822065
 10
1113.013888610635
 20
-860.0722220072041
 10
1118.013888609386
 20
-860.0722220072041
  0
LWPOLYLINE
  5
155
330
70
100
AcDbEntity
  8
5mm
 62
    18
420
        0
370
    35
100
AcDbPolyline
 90
        4
 70
     1
 43
0.0
 10
1165.513888597621
 20
-907.5722219975737
 10
1165.513888597399
 20
-912.5722219963243
 10
1065.513888622397
 20
-912.5722219918339
 10
1065.513888622623
 20
-907.5722219930863
  0
LWPOLYLINE
  5
156
330
70
100
AcDbEntity
  8
5mm
 62
    18
420
        0
370
    35
100
AcDbPolyline
 90
        4
 70
     1
 43
0.0
 10
1118.013888609386
 20
-1070.138888621356
 10
1113.013888610635
 20
-1070.138888621356
 10
1113.013888610635
 20
-970.1388886463542
 10
1118.013888609386
 20
-970.1388886463542
  0
LWPOLYLINE
  5
157
330
70
100
AcDbEntity
  8
5mm
 62
    18
420
        0
370
    35
100
AcDbPolyline
 90
        4
 70
     1
 43
0.0
 10
1165.513888597621
 20
-1017.638888636724
 10
1165.513888597399
 20
-1022.638888635474
 10
1065.513888622397
 20
-1022.638888630984
 10
1065.513888622623
 20
-1017.638888632236
  0
LWPOLYLINE
  5
158
330
70
100
AcDbEntity
  8
5mm
 62
    18
420
        0
370
    35
100
AcDbPolyline
 90
        4
 70
     1
 43
0.0
 10
1118.013888609386
 20
-1180.205555260506
 10
1113.013888610635
 20
-1180.205555260506
 10
1113.013888610635
 20
-1080.205555285504
 10
1118.013888609386
 20
-1080.205555285504
  0
LWPOLYLINE
  5
159
330
70
100
AcDbEntity
  8
5mm
 62
    18
420
        0
370
    35
100
AcDbPolyline
 90
        4
 70
     1
 43
0.0
 10
1165.513888597621
 20
-1127.705555275873
 10
1165.513888597399
 20
-1132.705555274624
 10
1065.513888622397
 20
-1132.705555270134
 10
1065.513888622623
 20
-1127.705555271386
  0
ENDSEC
  0
SECTION
  2
OBJECTS
  0
DICTIONARY
  5
C
330
0
100
AcDbDictionary
281
     1
  3
ACAD_COLOR
350
63
  3
ACAD_DETAILVIEWSTYLE
350
6A
  3
ACAD_GROUP
350
D
  3
ACAD_LAYOUT
350
62
  3
ACAD_MATERIAL
350
10
  3
ACAD_MLEADERSTYLE
350
66
  3
ACAD_MLINESTYLE
350
5F
  3
ACAD_PLOTSETTINGS
350
61
  3
ACAD_PLOTSTYLENAME
350
E
  3
ACAD_SCALELIST
350
42
  3
ACAD_SECTIONVIEWSTYLE
350
68
  3
ACAD_TABLESTYLE
350
64
  3
ACAD_VISUALSTYLE
350
29
  3
ACDB_RECOMPOSE_DATA
350
162
  3
AcDbVariableDictionary
350
15A
  0
DICTIONARY
  5
63
102
{ACAD_REACTORS
330
C
102
}
330
C
100
AcDbDictionary
281
     1
  0
DICTIONARY
  5
6A
102
{ACAD_REACTORS
330
C
102
}
330
C
100
AcDbDictionary
281
     1
  3
Imperial24
350
6B
  0
DICTIONARY
  5
D
102
{ACAD_REACTORS
330
C
102
}
330
C
100
AcDbDictionary
281
     1
  0
DICTIONARY
  5
62
102
{ACAD_REACTORS
330
C
102
}
330
C
100
AcDbDictionary
281
     1
  3
Layout1
350
6F
  3
Layout2
350
77
  3
Model
350
73
  0
DICTIONARY
  5
10
102
{ACAD_REACTORS
330
C
102
}
330
C
100
AcDbDictionary
281
     1
  3
ByBlock
350
19
  3
ByLayer
350
11
  3
Global
350
21
  0
DICTIONARY
  5
66
102
{ACAD_REACTORS
330
C
102
}
330
C
100
AcDbDictionary
281
     1
  3
Standard
350
67
  0
DICTIONARY
  5
5F
102
{ACAD_REACTORS
330
C
102
}
330
C
100
AcDbDictionary
281
     1
  3
Standard
350
60
  0
DICTIONARY
  5
61
102
{ACAD_REACTORS
330
C
102
}
330
C
100
AcDbDictionary
281
     1
  0
ACDBDICTIONARYWDFLT
  5
E
102
{ACAD_REACTORS
330
C
102
}
330
C
100
AcDbDictionary
281
     1
  3
Normal
350
F
100
AcDbDictionaryWithDefault
340
F
  0
DICTIONARY
  5
42
102
{ACAD_REACTORS
330
C
102
}
330
C
100
AcDbDictionary
281
     1
  3
A0
350
43
  3
A1
350
44
  3
A2
350
45
  3
A3
350
46
  3
A4
350
47
  3
A5
350
48
  3
A6
350
49
  3
A7
350
4A
  3
A8
350
4B
  3
A9
350
4C
  3
B0
350
4D
  3
B1
350
4E
  3
B2
350
4F
  3
B3
350
50
  3
B4
350
51
  3
B5
350
52
  3
B6
350
53
  0
DICTIONARY
  5
68
102
{ACAD_REACTORS
330
C
102
}
330
C
100
AcDbDictionary
281
     1
  3
Imperial24
350
69
  0
DICTIONARY
  5
64
102
{ACAD_REACTORS
330
C
102
}
330
C
100
AcDbDictionary
281
     1
  3
Standard
350
65
  0
DICTIONARY
  5
29
102
{ACAD_REACTORS
330
C
102
}
330
C
100
AcDbDictionary
281
     1
  3
2dWireframe
350
2F
  3
Basic
350
2E
  3
Brighten
350
35
  3
ColorChange
350
39
  3
Conceptual
350
32
  3
Dim
350
34
  3
EdgeColorOff
350
41
  3
Facepattern
350
38
  3
Flat
350
2A
  3
FlatWithEdges
350
2B
  3
Gouraud
350
2C
  3
GouraudWithEdges
350
2D
  3
Hidden
350
31
  3
JitterOff
350
3F
  3
Linepattern
350
37
  3
OverhangOff
350
40
  3
Realistic
350
33
  3
Shaded
350
3E
  3
Shaded with edges
350
3D
  3
Shades of Gray
350
3A
  3
Sketchy
350
3B
  3
Thicken
350
36
  3
Wireframe
350
30
  3
X-Ray
350
3C
  0
XRECORD
  5
162
102
{ACAD_REACTORS
330
C
102
}
330
C
100
AcDbXrecord
280
     1
 90
        1
330
65
  0
DICTIONARY
  5
15A
102
{ACAD_REACTORS
330
C
102
}
330
C
100
AcDbDictionary
281
     1
  3
CANNOSCALE
350
15F
  3
CMLEADERSTYLE
350
15C
  3
CTABLESTYLE
350
15B
  3
CVIEWDETAILSTYLE
350
15D
  3
CVIEWSECTIONSTYLE
350
15E
  0
ACDBDETAILVIEWSTYLE
  5
6B
102
{ACAD_REACTORS
330
6A
102
}
330
6A
100
AcDbModelDocViewStyle
 70
     0
  3
Imperial24
290
     1
300
Imperial24
 90
        0
100
AcDbDetailViewStyle
 70
     0
 71
     0
 90
        3
 71
     1
340
55
 62
   256
 40
0.24
340
0
 62
   256
 40
0.24
300

 40
0.36
280
     3
 71
     2
340
5D
 90
       25
 62
   256
 71
     3
340
55
 62
   256
 40
0.24
 90
        1
 40
0.75
 90
        1
300
%<\AcVar ViewType \f "%tc1">% %<\AcVar ViewDetailId>%\PSCALE %<\AcVar ViewScale \f "%sn">%
 71
     4
340
5D
 90
       25
 62
   256
340
5D
 90
       25
 62
   256
280
     0
  0
LAYOUT
  5
6F
102
{ACAD_REACTORS
330
62
102
}
330
62
100
AcDbPlotSettings
  1

  2

  4

  6

 40
0.0
 41
0.0
 42
0.0
 43
0.0
 44
0.0
 45
0.0
 46
0.0
 47
0.0
 48
0.0
 49
0.0
140
0.0
141
0.0
142
1.0
143
1.0
 70
   688
 72
     0
 73
     0
 74
     5
  7

 75
    16
147
1.0
 76
     0
 77
     2
 78
   300
148
0.0
149
0.0
100
AcDbLayout
  1
Layout1
 70
     1
 71
     1
 10
0.0
 20
0.0
 11
12.0
 21
9.0
 12
0.0
 22
0.0
 32
0.0
 14
0.0
 24
0.0
 34
0.0
 15
0.0
 25
0.0
 35
0.0
146
0.0
 13
0.0
 23
0.0
 33
0.0
 16
1.0
 26
0.0
 36
0.0
 17
0.0
 27
1.0
 37
0.0
 76
     0
330
6C
  0
LAYOUT
  5
77
102
{ACAD_REACTORS
330
62
102
}
330
62
100
AcDbPlotSettings
  1

  2

  4

  6

 40
0.0
 41
0.0
 42
0.0
 43
0.0
 44
0.0
 45
0.0
 46
0.0
 47
0.0
 48
0.0
 49
0.0
140
0.0
141
0.0
142
1.0
143
1.0
 70
   688
 72
     0
 73
     0
 74
     5
  7

 75
    16
147
1.0
 76
     0
 77
     2
 78
   300
148
0.0
149
0.0
100
AcDbLayout
  1
Layout2
 70
     1
 71
     2
 10
0.0
 20
0.0
 11
12.0
 21
9.0
 12
0.0
 22
0.0
 32
0.0
 14
0.0
 24
0.0
 34
0.0
 15
0.0
 25
0.0
 35
0.0
146
0.0
 13
0.0
 23
0.0
 33
0.0
 16
1.0
 26
0.0
 36
0.0
 17
0.0
 27
1.0
 37
0.0
 76
     0
330
74
  0
LAYOUT
  5
73
102
{ACAD_REACTORS
330
62
102
}
330
62
100
AcDbPlotSettings
  1

  2

  4

  6

 40
0.0
 41
0.0
 42
0.0
 43
0.0
 44
0.0
 45
0.0
 46
0.0
 47
0.0
 48
0.0
 49
0.0
140
0.0
141
0.0
142
1.0
143
1.0
 70
  1712
 72
     0
 73
     0
 74
     0
  7

 75
     0
147
1.0
 76
     0
 77
     2
 78
   300
148
0.0
149
0.0
100
AcDbLayout
  1
Model
 70
     1
 71
     0
 10
0.0
 20
0.0
 11
12.0
 21
9.0
 12
0.0
 22
0.0
 32
0.0
 14
0.0
 24
0.0
 34
0.0
 15
0.0
 25
0.0
 35
0.0
146
0.0
 13
0.0
 23
0.0
 33
0.0
 16
1.0
 26
0.0
 36
0.0
 17
0.0
 27
1.0
 37
0.0
 76
     0
330
70
  0
MATERIAL
  5
19
102
{ACAD_XDICTIONARY
360
1A
102
}
102
{ACAD_REACTORS
330
10
102
}
330
10
100
AcDbMaterial
  1
ByBlock
 72
     0
 43
0.0208333333333333
 43
0.0
 43
0.0
 43
0.0
 43
0.0
 43
0.0208333333333333
 43
0.0
 43
0.0
 43
0.0
 43
0.0
 43
1.0
 43
0.0
 43
0.0
 43
0.0
 43
0.0
 43
1.0
 77
     0
 47
0.0208333333333333
 47
0.0
 47
0.0
 47
0.0
 47
0.0
 47
0.0208333333333333
 47
0.0
 47
0.0
 47
0.0
 47
0.0
 47
1.0
 47
0.0
 47
0.0
 47
0.0
 47
0.0
 47
1.0
171
     0
 49
0.0208333333333333
 49
0.0
 49
0.0
 49
0.0
 49
0.0
 49
0.0208333333333333
 49
0.0
 49
0.0
 49
0.0
 49
0.0
 49
1.0
 49
0.0
 49
0.0
 49
0.0
 49
0.0
 49
1.0
175
     0
142
0.0208333333333333
142
0.0
142
0.0
142
0.0
142
0.0
142
0.0208333333333333
142
0.0
142
0.0
142
0.0
142
0.0
142
1.0
142
0.0
142
0.0
142
0.0
142
0.0
142
1.0
179
     0
144
0.0208333333333333
144
0.0
144
0.0
144
0.0
144
0.0
144
0.0208333333333333
144
0.0
144
0.0
144
0.0
144
0.0
144
1.0
144
0.0
144
0.0
144
0.0
144
0.0
144
1.0
147
0.0208333333333333
147
0.0
147
0.0
147
0.0
147
0.0
147
0.0208333333333333
147
0.0
147
0.0
147
0.0
147
0.0
147
1.0
147
0.0
147
0.0
147
0.0
147
0.0
147
1.0
  0
MATERIAL
  5
11
102
{ACAD_XDICTIONARY
360
12
102
}
102
{ACAD_REACTORS
330
10
102
}
330
10
100
AcDbMaterial
  1
ByLayer
 72
     0
 43
0.0208333333333333
 43
0.0
 43
0.0
 43
0.0
 43
0.0
 43
0.0208333333333333
 43
0.0
 43
0.0
 43
0.0
 43
0.0
 43
1.0
 43
0.0
 43
0.0
 43
0.0
 43
0.0
 43
1.0
 77
     0
 47
0.0208333333333333
 47
0.0
 47
0.0
 47
0.0
 47
0.0
 47
0.0208333333333333
 47
0.0
 47
0.0
 47
0.0
 47
0.0
 47
1.0
 47
0.0
 47
0.0
 47
0.0
 47
0.0
 47
1.0
171
     0
 49
0.0208333333333333
 49
0.0
 49
0.0
 49
0.0
 49
0.0
 49
0.0208333333333333
 49
0.0
 49
0.0
 49
0.0
 49
0.0
 49
1.0
 49
0.0
 49
0.0
 49
0.0
 49
0.0
 49
1.0
175
     0
142
0.0208333333333333
142
0.0
142
0.0
142
0.0
142
0.0
142
0.0208333333333333
142
0.0
142
0.0
142
0.0
142
0.0
142
1.0
142
0.0
142
0.0
142
0.0
142
0.0
142
1.0
179
     0
144
0.0208333333333333
144
0.0
144
0.0
144
0.0
144
0.0
144
0.0208333333333333
144
0.0
144
0.0
144
0.0
144
0.0
144
1.0
144
0.0
144
0.0
144
0.0
144
0.0
144
1.0
147
0.0208333333333333
147
0.0
147
0.0
147
0.0
147
0.0
147
0.0208333333333333
147
0.0
147
0.0
147
0.0
147
0.0
147
1.0
147
0.0
147
0.0
147
0.0
147
0.0
147
1.0
  0
MATERIAL
  5
21
102
{ACAD_XDICTIONARY
360
22
102
}
102
{ACAD_REACTORS
330
10
102
}
330
10
100
AcDbMaterial
  1
Global
 72
     0
 43
0.0208333333333333
 43
0.0
 43
0.0
 43
0.0
 43
0.0
 43
0.0208333333333333
 43
0.0
 43
0.0
 43
0.0
 43
0.0
 43
1.0
 43
0.0
 43
0.0
 43
0.0
 43
0.0
 43
1.0
 77
     0
 47
0.0208333333333333
 47
0.0
 47
0.0
 47
0.0
 47
0.0
 47
0.0208333333333333
 47
0.0
 47
0.0
 47
0.0
 47
0.0
 47
1.0
 47
0.0
 47
0.0
 47
0.0
 47
0.0
 47
1.0
171
     0
 49
0.0208333333333333
 49
0.0
 49
0.0
 49
0.0
 49
0.0
 49
0.0208333333333333
 49
0.0
 49
0.0
 49
0.0
 49
0.0
 49
1.0
 49
0.0
 49
0.0
 49
0.0
 49
0.0
 49
1.0
175
     0
142
0.0208333333333333
142
0.0
142
0.0
142
0.0
142
0.0
142
0.0208333333333333
142
0.0
142
0.0
142
0.0
142
0.0
142
1.0
142
0.0
142
0.0
142
0.0
142
0.0
142
1.0
179
     0
144
0.0208333333333333
144
0.0
144
0.0
144
0.0
144
0.0
144
0.0208333333333333
144
0.0
144
0.0
144
0.0
144
0.0
144
1.0
144
0.0
144
0.0
144
0.0
144
0.0
144
1.0
147
0.0208333333333333
147
0.0
147
0.0
147
0.0
147
0.0
147
0.0208333333333333
147
0.0
147
0.0
147
0.0
147
0.0
147
1.0
147
0.0
147
0.0
147
0.0
147
0.0
147
1.0
  0
MLEADERSTYLE
  5
67
102
{ACAD_REACTORS
330
66
102
}
330
66
100
AcDbMLeaderStyle
179
     2
170
     2
171
     1
172
     0
 90
        2
 40
0.0
 41
0.0
173
     1
 91
-1056964608
340
5B
 92
       -2
290
     1
 42
0.09
291
     1
 43
0.36
  3
Standard
 44
0.18
300

342
55
174
     1
178
     6
175
     1
176
     0
 93
-1056964608
 45
0.18
292
     0
297
     0
 46
0.18
 94
-1056964608
 47
1.0
 49
1.0
140
1.0
293
     1
141
0.0
294
     1
177
     0
142
1.0
295
     1
296
     0
143
0.125
271
     0
272
     9
273
     9
298
     1
  0
MLINESTYLE
  5
60
102
{ACAD_REACTORS
330
5F
102
}
330
5F
100
AcDbMlineStyle
  2
STANDARD
 70
     0
  3

 62
   256
 51
90.0
 52
90.0
 71
     2
 49
0.5
 62
   256
  6
BYLAYER
 49
-0.5
 62
   256
  6
BYLAYER
  0
ACDBPLACEHOLDER
  5
F
102
{ACAD_REACTORS
330
E
102
}
330
E
  0
SCALE
  5
43
102
{ACAD_REACTORS
330
42
102
}
330
42
100
AcDbScale
 70
     0
300
1:1
140
1.0
141
1.0
290
     1
  0
SCALE
  5
44
102
{ACAD_REACTORS
330
42
102
}
330
42
100
AcDbScale
 70
     0
300
1/128" = 1'-0"
140
0.0078125
141
12.0
290
     0
  0
SCALE
  5
45
102
{ACAD_REACTORS
330
42
102
}
330
42
100
AcDbScale
 70
     0
300
1/64" = 1'-0"
140
0.015625
141
12.0
290
     0
  0
SCALE
  5
46
102
{ACAD_REACTORS
330
42
102
}
330
42
100
AcDbScale
 70
     0
300
1/32" = 1'-0"
140
0.03125
141
12.0
290
     0
  0
SCALE
  5
47
102
{ACAD_REACTORS
330
42
102
}
330
42
100
AcDbScale
 70
     0
300
1/16" = 1'-0"
140
0.0625
141
12.0
290
     0
  0
SCALE
  5
48
102
{ACAD_REACTORS
330
42
102
}
330
42
100
AcDbScale
 70
     0
300
3/32" = 1'-0"
140
0.09375
141
12.0
290
     0
  0
SCALE
  5
49
102
{ACAD_REACTORS
330
42
102
}
330
42
100
AcDbScale
 70
     0
300
1/8" = 1'-0"
140
0.125
141
12.0
290
     0
  0
SCALE
  5
4A
102
{ACAD_REACTORS
330
42
102
}
330
42
100
AcDbScale
 70
     0
300
3/16" = 1'-0"
140
0.1875
141
12.0
290
     0
  0
SCALE
  5
4B
102
{ACAD_REACTORS
330
42
102
}
330
42
100
AcDbScale
 70
     0
300
1/4" = 1'-0"
140
0.25
141
12.0
290
     0
  0
SCALE
  5
4C
102
{ACAD_REACTORS
330
42
102
}
330
42
100
AcDbScale
 70
     0
300
3/8" = 1'-0"
140
0.375
141
12.0
290
     0
  0
SCALE
  5
4D
102
{ACAD_REACTORS
330
42
102
}
330
42
100
AcDbScale
 70
     0
300
1/2" = 1'-0"
140
0.5
141
12.0
290
     0
  0
SCALE
  5
4E
102
{ACAD_REACTORS
330
42
102
}
330
42
100
AcDbScale
 70
     0
300
3/4" = 1'-0"
140
0.75
141
12.0
290
     0
  0
SCALE
  5
4F
102
{ACAD_REACTORS
330
42
102
}
330
42
100
AcDbScale
 70
     0
300
1" = 1'-0"
140
1.0
141
12.0
290
     0
  0
SCALE
  5
50
102
{ACAD_REACTORS
330
42
102
}
330
42
100
AcDbScale
 70
     0
300
1-1/2" = 1'-0"
140
1.5
141
12.0
290
     0
  0
SCALE
  5
51
102
{ACAD_REACTORS
330
42
102
}
330
42
100
AcDbScale
 70
     0
300
3" = 1'-0"
140
3.0
141
12.0
290
     0
  0
SCALE
  5
52
102
{ACAD_REACTORS
330
42
102
}
330
42
100
AcDbScale
 70
     0
300
6" = 1'-0"
140
6.0
141
12.0
290
     0
  0
SCALE
  5
53
102
{ACAD_REACTORS
330
42
102
}
330
42
100
AcDbScale
 70
     0
300
1'-0" = 1'-0"
140
12.0
141
12.0
290
     0
  0
ACDBSECTIONVIEWSTYLE
  5
69
102
{ACAD_REACTORS
330
68
102
}
330
68
100
AcDbModelDocViewStyle
 70
     0
  3
Imperial24
290
     1
300
Imperial24
 90
        0
100
AcDbSectionViewStyle
 70
     0
 71
     0
 90
       78
 71
     1
340
55
 62
   256
 40
0.24
340
0
340
0
 62
   256
 40
0.24
300
I, O, Q, S, X, Z
 40
0.48
 90
        3
 40
0.18
 90
        1
 71
     2
340
5D
 90
       25
 62
   256
340
5D
 90
       50
 62
   256
 40
0.24
 40
0.0
 40
0.24
 71
     3
340
55
 62
   256
 40
0.24
 90
        1
 40
0.75
 90
        1
300
%<\AcVar ViewType \f "%tc1">% %<\AcVar ViewSectionStartId>%-%<\AcVar ViewSectionEndId>%\PSCALE %<\AcVar ViewScale \f "%sn">%
 71
     4
 62
   256
 62
   257
300
ANSI31
 40
1.0
 90
        0
290
     0
290
     0
 90
        6
 40
0.0
 40
1.570796326794896
 40
0.2617993877991494
 40
1.308996938995747
 40
-0.2617993877991494
 40
1.832595714594046
  0
TABLESTYLE
  5
65
102
{ACAD_XDICTIONARY
360
160
102
}
102
{ACAD_REACTORS
330
64
102
}
330
64
100
AcDbTableStyle
280
     0
  3
Standard
 70
     0
 71
     0
 40
0.06
 41
0.06
280
     0
281
     0
  7
Standard
140
0.18
170
     2
 62
     0
 63
     7
283
     0
 90
      512
 91
        0
  1

274
    -2
284
     1
 64
     0
275
    -2
285
     1
 65
     0
276
    -2
286
     1
 66
     0
277
    -2
287
     1
 67
     0
278
    -2
288
     1
 68
     0
279
    -2
289
     1
 69
     0
  7
Standard
140
0.25
170
     5
 62
     0
 63
     7
283
     0
 90
      512
 91
        0
  1

274
    -2
284
     1
 64
     0
275
    -2
285
     1
 65
     0
276
    -2
286
     1
 66
     0
277
    -2
287
     1
 67
     0
278
    -2
288
     1
 68
     0
279
    -2
289
     1
 69
     0
  7
Standard
140
0.18
170
     5
 62
     0
 63
     7
283
     0
 90
      512
 91
        0
  1

274
    -2
284
     1
 64
     0
275
    -2
285
     1
 65
     0
276
    -2
286
     1
 66
     0
277
    -2
287
     1
 67
     0
278
    -2
288
     1
 68
     0
279
    -2
289
     1
 69
     0
  0
VISUALSTYLE
  5
2F
102
{ACAD_REACTORS
330
29
102
}
330
29
100
AcDbVisualStyle
  2
2dWireframe
 70
     4
177
     3
291
     0
 70
    58
 90
        0
176
     1
 90
        2
176
     1
 90
        0
176
     1
 90
        0
176
     1
 40
0.6
176
     1
 40
30.0
176
     1
 62
     7
420
 16777215
176
     1
 90
        1
176
     1
 90
        4
176
     1
 62
     7
176
     1
 62
   257
176
     1
 90
        1
176
     1
 90
        1
176
     1
 40
1.0
176
     1
 90
        0
176
     1
 62
   257
176
     1
 40
1.0
176
     1
 90
        1
176
     1
 90
        6
176
     1
 90
        2
176
     1
 62
     7
176
     1
 90
        5
176
     1
 90
        0
176
     1
 90
        0
176
     1
290
     0
176
     1
 90
        1
176
     1
 40
0.0
176
     1
 90
        0
176
     1
290
     1
176
     1
290
     1
176
     1
290
     0
176
     1
290
     0
176
     1
290
     0
176
     1
290
     0
176
     1
290
     0
176
     1
290
     0
176
     1
290
     0
176
     1
 90
       50
176
     1
 40
0.0
176
     1
 40
1.0
176
     1
 90
        0
176
     1
 62
    18
420
        0
176
     1
 90
       50
176
     1
 90
        3
176
     1
 62
     5
420
      255
176
     1
290
     0
176
     1
 90
       50
176
     1
 90
       50
176
     1
 90
       50
176
     1
290
     0
176
     1
 90
       50
176
     1
 62
   256
176
     0
 40
1.0
176
     0
 90
        2
176
     1
  1
strokes_ogs.tif
176
     1
290
     0
176
     1
 40
1.0
176
     1
 40
1.0
176
     1
  0
VISUALSTYLE
  5
2E
102
{ACAD_REACTORS
330
29
102
}
330
29
100
AcDbVisualStyle
  2
Basic
 70
     7
177
     3
291
     1
 70
    58
 90
        1
176
     1
 90
        0
176
     1
 90
        1
176
     1
 90
        0
176
     1
 40
0.6
176
     1
 40
30.0
176
     1
 62
     7
420
 16777215
176
     1
 90
        0
176
     1
 90
        4
176
     1
 62
     7
176
     1
 62
   257
176
     1
 90
        1
176
     1
 90
        1
176
     1
 40
1.0
176
     1
 90
        8
176
     1
 62
     7
176
     1
 40
1.0
176
     1
 90
        1
176
     1
 90
        6
176
     1
 90
        2
176
     1
 62
     7
176
     1
 90
        5
176
     1
 90
        0
176
     1
 90
        0
176
     1
290
     0
176
     1
 90
        1
176
     1
 40
0.0
176
     1
 90
        0
176
     1
290
     0
176
     1
290
     1
176
     1
290
     1
176
     1
290
     0
176
     1
290
     0
176
     1
290
     0
176
     1
290
     0
176
     1
290
     0
176
     1
290
     0
176
     1
 90
       50
176
     1
 40
0.0
176
     1
 40
1.0
176
     1
 90
        0
176
     1
 62
    18
420
        0
176
     1
 90
       50
176
     1
 90
        3
176
     1
 62
     5
420
      255
176
     1
290
     0
176
     1
 90
       50
176
     1
 90
       50
176
     1
 90
       50
176
     1
290
     0
176
     1
 90
       50
176
     1
 62
   256
176
     0
 40
1.0
176
     0
 90
        2
176
     1
  1
strokes_ogs.tif
176
     1
290
     0
176
     1
 40
1.0
176
     1
 40
1.0
176
     1
  0
VISUALSTYLE
  5
35
102
{ACAD_REACTORS
330
29
102
}
330
29
100
AcDbVisualStyle
  2
Brighten
 70
    12
177
     3
291
     1
 70
    58
 90
        2
176
     1
 90
        2
176
     1
 90
        0
176
     1
 90
        0
176
     1
 40
0.6
176
     1
 40
30.0
176
     1
 62
     7
420
 16777215
176
     1
 90
        1
176
     1
 90
        4
176
     1
 62
     7
176
     1
 62
   257
176
     1
 90
        1
176
     1
 90
        1
176
     1
 40
1.0
176
     1
 90
        8
176
     1
 62
     7
176
     1
 40
1.0
176
     1
 90
        1
176
     1
 90
        6
176
     1
 90
        2
176
     1
 62
     7
176
     1
 90
        5
176
     1
 90
        0
176
     1
 90
        0
176
     1
290
     0
176
     1
 90
        1
176
     1
 40
50.0
176
     1
 90
        0
176
     1
290
     0
176
     1
290
     1
176
     1
290
     1
176
     1
290
     0
176
     1
290
     0
176
     1
290
     0
176
     1
290
     0
176
     1
290
     0
176
     1
290
     0
176
     1
 90
       50
176
     1
 40
0.0
176
     1
 40
1.0
176
     1
 90
        0
176
     1
 62
    18
420
        0
176
     1
 90
       50
176
     1
 90
        3
176
     1
 62
     5
420
      255
176
     1
290
     0
176
     1
 90
       50
176
     1
 90
       50
176
     1
 90
       50
176
     1
290
     0
176
     1
 90
       50
176
     1
 62
   256
176
     0
 40
1.0
176
     0
 90
        2
176
     1
  1
strokes_ogs.tif
176
     1
290
     0
176
     1
 40
1.0
176
     1
 40
1.0
176
     1
  0
VISUALSTYLE
  5
39
102
{ACAD_REACTORS
330
29
102
}
330
29
100
AcDbVisualStyle
  2
ColorChange
 70
    16
177
     3
291
     1
 70
    58
 90
        2
176
     1
 90
        2
176
     1
 90
        3
176
     1
 90
        0
176
     1
 40
0.6
176
     1
 40
30.0
176
     1
 62
     8
420
  8421504
176
     1
 90
        1
176
     1
 90
        4
176
     1
 62
     7
176
     1
 62
   257
176
     1
 90
        1
176
     1
 90
        1
176
     1
 40
1.0
176
     1
 90
        8
176
     1
 62
     8
420
  8421504
176
     1
 40
1.0
176
     1
 90
        1
176
     1
 90
        6
176
     1
 90
        2
176
     1
 62
     7
176
     1
 90
        5
176
     1
 90
        0
176
     1
 90
        0
176
     1
290
     0
176
     1
 90
        1
176
     1
 40
0.0
176
     1
 90
        0
176
     1
290
     0
176
     1
290
     1
176
     1
290
     1
176
     1
290
     0
176
     1
290
     0
176
     1
290
     0
176
     1
290
     0
176
     1
290
     0
176
     1
290
     0
176
     1
 90
       50
176
     1
 40
0.0
176
     1
 40
1.0
176
     1
 90
        0
176
     1
 62
    18
420
        0
176
     1
 90
       50
176
     1
 90
        3
176
     1
 62
     5
420
      255
176
     1
290
     0
176
     1
 90
       50
176
     1
 90
       50
176
     1
 90
       50
176
     1
290
     0
176
     1
 90
       50
176
     1
 62
   256
176
     0
 40
1.0
176
     0
 90
        2
176
     1
  1
strokes_ogs.tif
176
     1
290
     0
176
     1
 40
1.0
176
     1
 40
1.0
176
     1
  0
VISUALSTYLE
  5
32
102
{ACAD_REACTORS
330
29
102
}
330
29
100
AcDbVisualStyle
  2
Conceptual
 70
     9
177
     3
291
     0
 70
    58
 90
        3
176
     1
 90
        2
176
     1
 90
        0
176
     1
 90
        0
176
     1
 40
0.6
176
     1
 40
30.0
176
     1
 62
     7
420
 16777215
176
     1
 90
        2
176
     1
 90
        2
176
     1
 62
     7
176
     1
 62
   257
176
     1
 90
        1
176
     1
 90
        1
176
     1
 40
179.0
176
     1
 90
        8
176
     1
 62
     7
176
     1
 40
1.0
176
     1
 90
        1
176
     1
 90
        6
176
     1
 90
        2
176
     1
 62
     7
176
     1
 90
        3
176
     1
 90
        0
176
     1
 90
        0
176
     1
290
     0
176
     1
 90
        1
176
     1
 40
0.0
176
     1
 90
        0
176
     1
290
     0
176
     1
290
     1
176
     1
290
     1
176
     1
290
     0
176
     1
290
     0
176
     1
290
     0
176
     1
290
     0
176
     1
290
     0
176
     1
290
     0
176
     1
 90
       50
176
     1
 40
0.0
176
     1
 40
1.0
176
     1
 90
        0
176
     1
 62
    18
420
        0
176
     1
 90
       50
176
     1
 90
        3
176
     1
 62
     5
420
      255
176
     1
290
     0
176
     1
 90
       50
176
     1
 90
       50
176
     1
 90
       50
176
     1
290
     0
176
     1
 90
       50
176
     1
 62
   256
176
     0
 40
1.0
176
     0
 90
        2
176
     1
  1
strokes_ogs.tif
176
     1
290
     0
176
     1
 40
1.0
176
     1
 40
1.0
176
     1
  0
VISUALSTYLE
  5
34
102
{ACAD_REACTORS
330
29
102
}
330
29
100
AcDbVisualStyle
  2
Dim
 70
    11
177
     3
291
     1
 70
    58
 90
        2
176
     1
 90
        2
176
     1
 90
        0
176
     1
 90
        0
176
     1
 40
0.6
176
     1
 40
30.0
176
     1
 62
     7
420
 16777215
176
     1
 90
        1
176
     1
 90
        4
176
     1
 62
     7
176
     1
 62
   257
176
     1
 90
        1
176
     1
 90
        1
176
     1
 40
1.0
176
     1
 90
        8
176
     1
 62
     7
176
     1
 40
1.0
176
     1
 90
        1
176
     1
 90
        6
176
     1
 90
        2
176
     1
 62
     7
176
     1
 90
        5
176
     1
 90
        0
176
     1
 90
        0
176
     1
290
     0
176
     1
 90
        1
176
     1
 40
-50.0
176
     1
 90
        0
176
     1
290
     0
176
     1
290
     1
176
     1
290
     1
176
     1
290
     0
176
     1
290
     0
176
     1
290
     0
176
     1
290
     0
176
     1
290
     0
176
     1
290
     0
176
     1
 90
       50
176
     1
 40
0.0
176
     1
 40
1.0
176
     1
 90
        0
176
     1
 62
    18
420
        0
176
     1
 90
       50
176
     1
 90
        3
176
     1
 62
     5
420
      255
176
     1
290
     0
176
     1
 90
       50
176
     1
 90
       50
176
     1
 90
       50
176
     1
290
     0
176
     1
 90
       50
176
     1
 62
   256
176
     0
 40
1.0
176
     0
 90
        2
176
     1
  1
strokes_ogs.tif
176
     1
290
     0
176
     1
 40
1.0
176
     1
 40
1.0
176
     1
  0
VISUALSTYLE
  5
41
102
{ACAD_REACTORS
330
29
102
}
330
29
100
AcDbVisualStyle
  2
EdgeColorOff
 70
    22
177
     3
291
     1
 70
    58
 90
        2
176
     0
 90
        2
176
     0
 90
        0
176
     0
 90
        0
176
     0
 40
0.6
176
     0
 40
30.0
176
     0
 62
     7
420
 16777215
176
     0
 90
        1
176
     0
 90
        4
176
     0
 62
     7
176
     0
 62
   257
176
     0
 90
        1
176
     0
 90
        1
176
     0
 40
1.0
176
     0
 90
        8
176
     2
 62
     7
176
     0
 40
1.0
176
     0
 90
        1
176
     0
 90
        6
176
     0
 90
        2
176
     0
 62
     7
176
     0
 90
        5
176
     0
 90
        0
176
     0
 90
        0
176
     0
290
     0
176
     0
 90
        1
176
     0
 40
0.0
176
     0
 90
        0
176
     0
290
     0
176
     0
290
     1
176
     0
290
     1
176
     0
290
     0
176
     0
290
     0
176
     0
290
     0
176
     0
290
     0
176
     0
290
     0
176
     0
290
     0
176
     0
 90
       50
176
     0
 40
0.0
176
     0
 40
1.0
176
     0
 90
        0
176
     0
 62
    18
420
        0
176
     0
 90
       50
176
     0
 90
        3
176
     0
 62
     5
420
      255
176
     0
290
     0
176
     0
 90
       50
176
     0
 90
       50
176
     0
 90
       50
176
     0
290
     0
176
     0
 90
       50
176
     0
 62
   256
176
     0
 40
1.0
176
     0
 90
        2
176
     0
  1
strokes_ogs.tif
176
     0
290
     0
176
     0
 40
1.0
176
     0
 40
1.0
176
     0
  0
VISUALSTYLE
  5
38
102
{ACAD_REACTORS
330
29
102
}
330
29
100
AcDbVisualStyle
  2
Facepattern
 70
    15
177
     3
291
     1
 70
    58
 90
        2
176
     1
 90
        2
176
     1
 90
        0
176
     1
 90
        0
176
     1
 40
0.6
176
     1
 40
30.0
176
     1
 62
     7
420
 16777215
176
     1
 90
        1
176
     1
 90
        4
176
     1
 62
     7
176
     1
 62
   257
176
     1
 90
        1
176
     1
 90
        1
176
     1
 40
1.0
176
     1
 90
        8
176
     1
 62
     7
176
     1
 40
1.0
176
     1
 90
        1
176
     1
 90
        6
176
     1
 90
        2
176
     1
 62
     7
176
     1
 90
        5
176
     1
 90
        0
176
     1
 90
        0
176
     1
290
     0
176
     1
 90
        1
176
     1
 40
0.0
176
     1
 90
        0
176
     1
290
     0
176
     1
290
     1
176
     1
290
     1
176
     1
290
     0
176
     1
290
     0
176
     1
290
     0
176
     1
290
     0
176
     1
290
     0
176
     1
290
     0
176
     1
 90
       50
176
     1
 40
0.0
176
     1
 40
1.0
176
     1
 90
        0
176
     1
 62
    18
420
        0
176
     1
 90
       50
176
     1
 90
        3
176
     1
 62
     5
420
      255
176
     1
290
     0
176
     1
 90
       50
176
     1
 90
       50
176
     1
 90
       50
176
     1
290
     0
176
     1
 90
       50
176
     1
 62
   256
176
     0
 40
1.0
176
     0
 90
        2
176
     1
  1
strokes_ogs.tif
176
     1
290
     0
176
     1
 40
1.0
176
     1
 40
1.0
176
     1
  0
VISUALSTYLE
  5
2A
102
{ACAD_REACTORS
330
29
102
}
330
29
100
AcDbVisualStyle
  2
Flat
 70
     0
177
     3
291
     1
 70
    58
 90
        2
176
     1
 90
        1
176
     1
 90
        1
176
     1
 90
        2
176
     1
 40
0.6
176
     1
 40
30.0
176
     1
 62
     7
420
 16777215
176
     1
 90
        0
176
     1
 90
        0
176
     1
 62
     7
176
     1
 62
   257
176
     1
 90
        1
176
     1
 90
        1
176
     1
 40
1.0
176
     1
 90
        8
176
     1
 62
     7
176
     1
 40
1.0
176
     1
 90
        1
176
     1
 90
        6
176
     1
 90
        2
176
     1
 62
     7
176
     1
 90
        5
176
     1
 90
        0
176
     1
 90
        0
176
     1
290
     0
176
     1
 90
       13
176
     1
 40
0.0
176
     1
 90
        0
176
     1
290
     0
176
     1
290
     1
176
     1
290
     1
176
     1
290
     0
176
     1
290
     0
176
     1
290
     0
176
     1
290
     0
176
     1
290
     0
176
     1
290
     0
176
     1
 90
       50
176
     1
 40
0.0
176
     1
 40
1.0
176
     1
 90
        0
176
     1
 62
    18
420
        0
176
     1
 90
       50
176
     1
 90
        3
176
     1
 62
     5
420
      255
176
     1
290
     0
176
     1
 90
       50
176
     1
 90
       50
176
     1
 90
       50
176
     1
290
     0
176
     1
 90
       50
176
     1
 62
   256
176
     0
 40
1.0
176
     0
 90
        2
176
     1
  1
strokes_ogs.tif
176
     1
290
     0
176
     1
 40
1.0
176
     1
 40
1.0
176
     1
  0
VISUALSTYLE
  5
2B
102
{ACAD_REACTORS
330
29
102
}
330
29
100
AcDbVisualStyle
  2
FlatWithEdges
 70
     1
177
     3
291
     1
 70
    58
 90
        2
176
     1
 90
        1
176
     1
 90
        1
176
     1
 90
        2
176
     1
 40
0.6
176
     1
 40
30.0
176
     1
 62
     7
420
 16777215
176
     1
 90
        1
176
     1
 90
        0
176
     1
 62
     7
176
     1
 62
   257
176
     1
 90
        1
176
     1
 90
        1
176
     1
 40
1.0
176
     1
 90
        0
176
     1
 62
   257
176
     1
 40
1.0
176
     1
 90
        1
176
     1
 90
        6
176
     1
 90
        2
176
     1
 62
     7
176
     1
 90
        5
176
     1
 90
        0
176
     1
 90
        0
176
     1
290
     0
176
     1
 90
       13
176
     1
 40
0.0
176
     1
 90
        0
176
     1
290
     0
176
     1
290
     1
176
     1
290
     1
176
     1
290
     0
176
     1
290
     0
176
     1
290
     0
176
     1
290
     0
176
     1
290
     0
176
     1
290
     0
176
     1
 90
       50
176
     1
 40
0.0
176
     1
 40
1.0
176
     1
 90
        0
176
     1
 62
    18
420
        0
176
     1
 90
       50
176
     1
 90
        3
176
     1
 62
     5
420
      255
176
     1
290
     0
176
     1
 90
       50
176
     1
 90
       50
176
     1
 90
       50
176
     1
290
     0
176
     1
 90
       50
176
     1
 62
   256
176
     0
 40
1.0
176
     0
 90
        2
176
     1
  1
strokes_ogs.tif
176
     1
290
     0
176
     1
 40
1.0
176
     1
 40
1.0
176
     1
  0
VISUALSTYLE
  5
2C
102
{ACAD_REACTORS
330
29
102
}
330
29
100
AcDbVisualStyle
  2
Gouraud
 70
     2
177
     3
291
     1
 70
    58
 90
        2
176
     1
 90
        2
176
     1
 90
        1
176
     1
 90
        2
176
     1
 40
0.6
176
     1
 40
30.0
176
     1
 62
     7
420
 16777215
176
     1
 90
        0
176
     1
 90
        0
176
     1
 62
     7
176
     1
 62
   257
176
     1
 90
        1
176
     1
 90
        1
176
     1
 40
1.0
176
     1
 90
        0
176
     1
 62
     7
176
     1
 40
1.0
176
     1
 90
        1
176
     1
 90
        6
176
     1
 90
        2
176
     1
 62
     7
176
     1
 90
        5
176
     1
 90
        0
176
     1
 90
        0
176
     1
290
     0
176
     1
 90
       13
176
     1
 40
0.0
176
     1
 90
        0
176
     1
290
     0
176
     1
290
     1
176
     1
290
     1
176
     1
290
     0
176
     1
290
     0
176
     1
290
     0
176
     1
290
     0
176
     1
290
     0
176
     1
290
     0
176
     1
 90
       50
176
     1
 40
0.0
176
     1
 40
1.0
176
     1
 90
        0
176
     1
 62
    18
420
        0
176
     1
 90
       50
176
     1
 90
        3
176
     1
 62
     5
420
      255
176
     1
290
     0
176
     1
 90
       50
176
     1
 90
       50
176
     1
 90
       50
176
     1
290
     0
176
     1
 90
       50
176
     1
 62
   256
176
     0
 40
1.0
176
     0
 90
        2
176
     1
  1
strokes_ogs.tif
176
     1
290
     0
176
     1
 40
1.0
176
     1
 40
1.0
176
     1
  0
VISUALSTYLE
  5
2D
102
{ACAD_REACTORS
330
29
102
}
330
29
100
AcDbVisualStyle
  2
GouraudWithEdges
 70
     3
177
     3
291
     1
 70
    58
 90
        2
176
     1
 90
        2
176
     1
 90
        1
176
     1
 90
        2
176
     1
 40
0.6
176
     1
 40
30.0
176
     1
 62
     7
420
 16777215
176
     1
 90
        1
176
     1
 90
        0
176
     1
 62
     7
176
     1
 62
   257
176
     1
 90
        1
176
     1
 90
        1
176
     1
 40
1.0
176
     1
 90
        0
176
     1
 62
   257
176
     1
 40
1.0
176
     1
 90
        1
176
     1
 90
        6
176
     1
 90
        2
176
     1
 62
     7
176
     1
 90
        5
176
     1
 90
        0
176
     1
 90
        0
176
     1
290
     0
176
     1
 90
       13
176
     1
 40
0.0
176
     1
 90
        0
176
     1
290
     0
176
     1
290
     1
176
     1
290
     1
176
     1
290
     0
176
     1
290
     0
176
     1
290
     0
176
     1
290
     0
176
     1
290
     0
176
     1
290
     0
176
     1
 90
       50
176
     1
 40
0.0
176
     1
 40
1.0
176
     1
 90
        0
176
     1
 62
    18
420
        0
176
     1
 90
       50
176
     1
 90
        3
176
     1
 62
     5
420
      255
176
     1
290
     0
176
     1
 90
       50
176
     1
 90
       50
176
     1
 90
       50
176
     1
290
     0
176
     1
 90
       50
176
     1
 62
   256
176
     0
 40
1.0
176
     0
 90
        2
176
     1
  1
strokes_ogs.tif
176
     1
290
     0
176
     1
 40
1.0
176
     1
 40
1.0
176
     1
  0
VISUALSTYLE
  5
31
102
{ACAD_REACTORS
330
29
102
}
330
29
100
AcDbVisualStyle
  2
Hidden
 70
     6
177
     3
291
     0
 70
    58
 90
        1
176
     1
 90
        2
176
     1
 90
        2
176
     1
 90
        0
176
     1
 40
0.6
176
     1
 40
30.0
176
     1
 62
     7
420
 16777215
176
     1
 90
        2
176
     1
 90
        2
176
     1
 62
     7
176
     1
 62
   257
176
     1
 90
        2
176
     1
 90
        1
176
     1
 40
40.0
176
     1
 90
        0
176
     1
 62
   257
176
     1
 40
1.0
176
     1
 90
        1
176
     1
 90
        6
176
     1
 90
        2
176
     1
 62
     7
176
     1
 90
        3
176
     1
 90
        0
176
     1
 90
        0
176
     1
290
     0
176
     1
 90
        1
176
     1
 40
0.0
176
     1
 90
        0
176
     1
290
     0
176
     1
290
     1
176
     1
290
     1
176
     1
290
     0
176
     1
290
     0
176
     1
290
     0
176
     1
290
     0
176
     1
290
     0
176
     1
290
     0
176
     1
 90
       50
176
     1
 40
0.0
176
     1
 40
1.0
176
     1
 90
        0
176
     1
 62
    18
420
        0
176
     1
 90
       50
176
     1
 90
        3
176
     1
 62
     5
420
      255
176
     1
290
     0
176
     1
 90
       50
176
     1
 90
       50
176
     1
 90
       50
176
     1
290
     0
176
     1
 90
       50
176
     1
 62
   256
176
     0
 40
1.0
176
     0
 90
        2
176
     1
  1
strokes_ogs.tif
176
     1
290
     0
176
     1
 40
1.0
176
     1
 40
1.0
176
     1
  0
VISUALSTYLE
  5
3F
102
{ACAD_REACTORS
330
29
102
}
330
29
100
AcDbVisualStyle
  2
JitterOff
 70
    20
177
     3
291
     1
 70
    58
 90
        2
176
     0
 90
        2
176
     0
 90
        0
176
     0
 90
        0
176
     0
 40
0.6
176
     0
 40
30.0
176
     0
 62
     7
420
 16777215
176
     0
 90
        1
176
     0
 90
        4
176
     0
 62
     7
176
     0
 62
   257
176
     0
 90
        1
176
     0
 90
        1
176
     0
 40
1.0
176
     0
 90
       10
176
     2
 62
     7
176
     0
 40
1.0
176
     0
 90
        1
176
     0
 90
        6
176
     0
 90
        2
176
     0
 62
     7
176
     0
 90
        5
176
     0
 90
        0
176
     0
 90
        0
176
     0
290
     0
176
     0
 90
        1
176
     0
 40
0.0
176
     0
 90
        0
176
     0
290
     0
176
     0
290
     1
176
     0
290
     1
176
     0
290
     0
176
     0
290
     0
176
     0
290
     0
176
     0
290
     0
176
     0
290
     0
176
     0
290
     0
176
     0
 90
       50
176
     0
 40
0.0
176
     0
 40
1.0
176
     0
 90
        0
176
     0
 62
    18
420
        0
176
     0
 90
       50
176
     0
 90
        3
176
     0
 62
     5
420
      255
176
     0
290
     0
176
     0
 90
       50
176
     0
 90
       50
176
     0
 90
       50
176
     0
290
     0
176
     0
 90
       50
176
     0
 62
   256
176
     0
 40
1.0
176
     0
 90
        2
176
     0
  1
strokes_ogs.tif
176
     0
290
     0
176
     0
 40
1.0
176
     0
 40
1.0
176
     0
  0
VISUALSTYLE
  5
37
102
{ACAD_REACTORS
330
29
102
}
330
29
100
AcDbVisualStyle
  2
Linepattern
 70
    14
177
     3
291
     1
 70
    58
 90
        2
176
     1
 90
        2
176
     1
 90
        0
176
     1
 90
        0
176
     1
 40
0.6
176
     1
 40
30.0
176
     1
 62
     7
420
 16777215
176
     1
 90
        1
176
     1
 90
        4
176
     1
 62
     7
176
     1
 62
   257
176
     1
 90
        7
176
     1
 90
        7
176
     1
 40
1.0
176
     1
 90
        8
176
     1
 62
     7
176
     1
 40
1.0
176
     1
 90
        1
176
     1
 90
        6
176
     1
 90
        2
176
     1
 62
     7
176
     1
 90
        5
176
     1
 90
        0
176
     1
 90
        0
176
     1
290
     0
176
     1
 90
        1
176
     1
 40
0.0
176
     1
 90
        0
176
     1
290
     0
176
     1
290
     1
176
     1
290
     1
176
     1
290
     0
176
     1
290
     0
176
     1
290
     0
176
     1
290
     0
176
     1
290
     0
176
     1
290
     0
176
     1
 90
       50
176
     1
 40
0.0
176
     1
 40
1.0
176
     1
 90
        0
176
     1
 62
    18
420
        0
176
     1
 90
       50
176
     1
 90
        3
176
     1
 62
     5
420
      255
176
     1
290
     0
176
     1
 90
       50
176
     1
 90
       50
176
     1
 90
       50
176
     1
290
     0
176
     1
 90
       50
176
     1
 62
   256
176
     0
 40
1.0
176
     0
 90
        2
176
     1
  1
strokes_ogs.tif
176
     1
290
     0
176
     1
 40
1.0
176
     1
 40
1.0
176
     1
  0
VISUALSTYLE
  5
40
102
{ACAD_REACTORS
330
29
102
}
330
29
100
AcDbVisualStyle
  2
OverhangOff
 70
    21
177
     3
291
     1
 70
    58
 90
        2
176
     0
 90
        2
176
     0
 90
        0
176
     0
 90
        0
176
     0
 40
0.6
176
     0
 40
30.0
176
     0
 62
     7
420
 16777215
176
     0
 90
        1
176
     0
 90
        4
176
     0
 62
     7
176
     0
 62
   257
176
     0
 90
        1
176
     0
 90
        1
176
     0
 40
1.0
176
     0
 90
        9
176
     2
 62
     7
176
     0
 40
1.0
176
     0
 90
        1
176
     0
 90
        6
176
     0
 90
        2
176
     0
 62
     7
176
     0
 90
        5
176
     0
 90
        0
176
     0
 90
        0
176
     0
290
     0
176
     0
 90
        1
176
     0
 40
0.0
176
     0
 90
        0
176
     0
290
     0
176
     0
290
     1
176
     0
290
     1
176
     0
290
     0
176
     0
290
     0
176
     0
290
     0
176
     0
290
     0
176
     0
290
     0
176
     0
290
     0
176
     0
 90
       50
176
     0
 40
0.0
176
     0
 40
1.0
176
     0
 90
        0
176
     0
 62
    18
420
        0
176
     0
 90
       50
176
     0
 90
        3
176
     0
 62
     5
420
      255
176
     0
290
     0
176
     0
 90
       50
176
     0
 90
       50
176
     0
 90
       50
176
     0
290
     0
176
     0
 90
       50
176
     0
 62
   256
176
     0
 40
1.0
176
     0
 90
        2
176
     0
  1
strokes_ogs.tif
176
     0
290
     0
176
     0
 40
1.0
176
     0
 40
1.0
176
     0
  0
VISUALSTYLE
  5
33
102
{ACAD_REACTORS
330
29
102
}
330
29
100
AcDbVisualStyle
  2
Realistic
 70
     8
177
     3
291
     0
 70
    58
 90
        2
176
     1
 90
        3
176
     1
 90
        0
176
     1
 90
        2
176
     1
 40
0.6
176
     1
 40
30.0
176
     1
 62
     7
420
 16777215
176
     1
 90
        0
176
     1
 90
        0
176
     1
 62
     7
176
     1
 62
   257
176
     1
 90
        1
176
     1
 90
        1
176
     1
 40
1.0
176
     1
 90
        8
176
     1
 62
   257
176
     1
 40
1.0
176
     1
 90
        1
176
     1
 90
        6
176
     1
 90
        2
176
     1
 62
     7
176
     1
 90
        3
176
     1
 90
        0
176
     1
 90
        0
176
     1
290
     0
176
     1
 90
       13
176
     1
 40
0.0
176
     1
 90
        0
176
     1
290
     0
176
     1
290
     1
176
     1
290
     1
176
     1
290
     0
176
     1
290
     0
176
     1
290
     0
176
     1
290
     0
176
     1
290
     0
176
     1
290
     0
176
     1
 90
       50
176
     1
 40
0.0
176
     1
 40
1.0
176
     1
 90
        0
176
     1
 62
    18
420
        0
176
     1
 90
       50
176
     1
 90
        3
176
     1
 62
     5
420
      255
176
     1
290
     0
176
     1
 90
       50
176
     1
 90
       50
176
     1
 90
       50
176
     1
290
     0
176
     1
 90
       50
176
     1
 62
   256
176
     0
 40
1.0
176
     0
 90
        2
176
     1
  1
strokes_ogs.tif
176
     1
290
     0
176
     1
 40
1.0
176
     1
 40
1.0
176
     1
  0
VISUALSTYLE
  5
3E
102
{ACAD_REACTORS
330
29
102
}
330
29
100
AcDbVisualStyle
  2
Shaded
 70
    27
177
     3
291
     0
 70
    58
 90
        2
176
     1
 90
        2
176
     1
 90
        1
176
     1
 90
        2
176
     1
 40
0.6
176
     1
 40
30.0
176
     1
 62
     7
420
 16777215
176
     1
 90
        0
176
     1
 90
        4
176
     1
 62
     7
176
     1
 62
   257
176
     1
 90
        1
176
     1
 90
        1
176
     1
 40
1.0
176
     1
 90
        8
176
     1
 62
   257
176
     1
 40
1.0
176
     1
 90
        1
176
     1
 90
        6
176
     1
 90
        2
176
     1
 62
     8
420
  7895160
176
     1
 90
        3
176
     1
 90
        0
176
     1
 90
        0
176
     1
290
     0
176
     1
 90
        5
176
     1
 40
0.0
176
     1
 90
        0
176
     1
290
     0
176
     1
290
     1
176
     1
290
     1
176
     1
290
     0
176
     1
290
     0
176
     1
290
     0
176
     1
290
     0
176
     1
290
     0
176
     1
290
     0
176
     1
 90
       50
176
     1
 40
0.0
176
     1
 40
1.0
176
     1
 90
        0
176
     1
 62
    18
420
        0
176
     1
 90
       50
176
     1
 90
        3
176
     1
 62
     5
420
      255
176
     1
290
     0
176
     1
 90
       50
176
     1
 90
       50
176
     1
 90
       50
176
     1
290
     0
176
     1
 90
       50
176
     1
 62
   256
176
     0
 40
1.0
176
     0
 90
        2
176
     1
  1
strokes_ogs.tif
176
     1
290
     0
176
     1
 40
1.0
176
     1
 40
1.0
176
     1
  0
VISUALSTYLE
  5
3D
102
{ACAD_REACTORS
330
29
102
}
330
29
100
AcDbVisualStyle
  2
Shaded with edges
 70
    26
177
     3
291
     0
 70
    58
 90
        2
176
     1
 90
        2
176
     1
 90
        1
176
     1
 90
        2
176
     1
 40
0.6
176
     1
 40
30.0
176
     1
 62
     7
420
 16777215
176
     1
 90
        1
176
     1
 90
        2
176
     1
 62
     7
176
     1
 62
   257
176
     1
 90
        2
176
     1
 90
        1
176
     1
 40
1.0
176
     1
 90
        8
176
     1
 62
   257
176
     1
 40
1.0
176
     1
 90
        1
176
     1
 90
        6
176
     1
 90
        2
176
     1
 62
     7
176
     1
 90
        3
176
     1
 90
        0
176
     1
 90
        0
176
     1
290
     0
176
     1
 90
        5
176
     1
 40
0.0
176
     1
 90
        0
176
     1
290
     0
176
     1
290
     1
176
     1
290
     1
176
     1
290
     0
176
     1
290
     0
176
     1
290
     0
176
     1
290
     0
176
     1
290
     0
176
     1
290
     0
176
     1
 90
       50
176
     1
 40
0.0
176
     1
 40
1.0
176
     1
 90
        0
176
     1
 62
    18
420
        0
176
     1
 90
       50
176
     1
 90
        3
176
     1
 62
     5
420
      255
176
     1
290
     0
176
     1
 90
       50
176
     1
 90
       50
176
     1
 90
       50
176
     1
290
     0
176
     1
 90
       50
176
     1
 62
   256
176
     0
 40
1.0
176
     0
 90
        2
176
     1
  1
strokes_ogs.tif
176
     1
290
     0
176
     1
 40
1.0
176
     1
 40
1.0
176
     1
  0
VISUALSTYLE
  5
3A
102
{ACAD_REACTORS
330
29
102
}
330
29
100
AcDbVisualStyle
  2
Shades of Gray
 70
    23
177
     3
291
     0
 70
    58
 90
        2
176
     1
 90
        2
176
     1
 90
        3
176
     1
 90
        0
176
     1
 40
0.6
176
     1
 40
30.0
176
     1
 62
     7
420
 16777215
176
     1
 90
        2
176
     1
 90
        2
176
     1
 62
     7
176
     1
 62
     7
176
     1
 90
        1
176
     1
 90
        1
176
     1
 40
40.0
176
     1
 90
        8
176
     1
 62
     7
176
     1
 40
1.0
176
     1
 90
        1
176
     1
 90
        6
176
     1
 90
        2
176
     1
 62
     7
176
     1
 90
        3
176
     1
 90
        0
176
     1
 90
        0
176
     1
290
     0
176
     1
 90
        1
176
     1
 40
0.0
176
     1
 90
        0
176
     1
290
     0
176
     1
290
     1
176
     1
290
     1
176
     1
290
     0
176
     1
290
     0
176
     1
290
     0
176
     1
290
     0
176
     1
290
     0
176
     1
290
     0
176
     1
 90
       50
176
     1
 40
0.0
176
     1
 40
1.0
176
     1
 90
        0
176
     1
 62
    18
420
        0
176
     1
 90
       50
176
     1
 90
        3
176
     1
 62
     5
420
      255
176
     1
290
     0
176
     1
 90
       50
176
     1
 90
       50
176
     1
 90
       50
176
     1
290
     0
176
     1
 90
       50
176
     1
 62
   256
176
     0
 40
1.0
176
     0
 90
        2
176
     1
  1
strokes_ogs.tif
176
     1
290
     0
176
     1
 40
1.0
176
     1
 40
1.0
176
     1
  0
VISUALSTYLE
  5
3B
102
{ACAD_REACTORS
330
29
102
}
330
29
100
AcDbVisualStyle
  2
Sketchy
 70
    24
177
     3
291
     0
 70
    58
 90
        1
176
     1
 90
        2
176
     1
 90
        2
176
     1
 90
        0
176
     1
 40
0.6
176
     1
 40
30.0
176
     1
 62
     7
420
 16777215
176
     1
 90
        2
176
     1
 90
        2
176
     1
 62
     7
176
     1
 62
     7
176
     1
 90
        1
176
     1
 90
        1
176
     1
 40
40.0
176
     1
 90
       11
176
     1
 62
     7
176
     1
 40
1.0
176
     1
 90
        1
176
     1
 90
        6
176
     1
 90
        2
176
     1
 62
     7
176
     1
 90
        6
176
     1
 90
        0
176
     1
 90
        0
176
     1
290
     0
176
     1
 90
        1
176
     1
 40
0.0
176
     1
 90
        0
176
     1
290
     0
176
     1
290
     1
176
     1
290
     1
176
     1
290
     0
176
     1
290
     0
176
     1
290
     0
176
     1
290
     0
176
     1
290
     0
176
     1
290
     0
176
     1
 90
       50
176
     1
 40
0.0
176
     1
 40
1.0
176
     1
 90
        0
176
     1
 62
    18
420
        0
176
     1
 90
       50
176
     1
 90
        3
176
     1
 62
     5
420
      255
176
     1
290
     0
176
     1
 90
       50
176
     1
 90
       50
176
     1
 90
       50
176
     1
290
     0
176
     1
 90
       50
176
     1
 62
   256
176
     0
 40
1.0
176
     0
 90
        2
176
     1
  1
strokes_ogs.tif
176
     1
290
     0
176
     1
 40
1.0
176
     1
 40
1.0
176
     1
  0
VISUALSTYLE
  5
36
102
{ACAD_REACTORS
330
29
102
}
330
29
100
AcDbVisualStyle
  2
Thicken
 70
    13
177
     3
291
     1
 70
    58
 90
        2
176
     1
 90
        2
176
     1
 90
        0
176
     1
 90
        0
176
     1
 40
0.6
176
     1
 40
30.0
176
     1
 62
     7
420
 16777215
176
     1
 90
        1
176
     1
 90
        4
176
     1
 62
     7
176
     1
 62
   257
176
     1
 90
        1
176
     1
 90
        1
176
     1
 40
1.0
176
     1
 90
       12
176
     1
 62
     7
176
     1
 40
1.0
176
     1
 90
        1
176
     1
 90
        6
176
     1
 90
        2
176
     1
 62
     7
176
     1
 90
        5
176
     1
 90
        0
176
     1
 90
        0
176
     1
290
     0
176
     1
 90
        1
176
     1
 40
0.0
176
     1
 90
        0
176
     1
290
     0
176
     1
290
     1
176
     1
290
     1
176
     1
290
     0
176
     1
290
     0
176
     1
290
     0
176
     1
290
     0
176
     1
290
     0
176
     1
290
     0
176
     1
 90
       50
176
     1
 40
0.0
176
     1
 40
1.0
176
     1
 90
        0
176
     1
 62
    18
420
        0
176
     1
 90
       50
176
     1
 90
        3
176
     1
 62
     5
420
      255
176
     1
290
     0
176
     1
 90
       50
176
     1
 90
       50
176
     1
 90
       50
176
     1
290
     0
176
     1
 90
       50
176
     1
 62
   256
176
     0
 40
1.0
176
     0
 90
        2
176
     1
  1
strokes_ogs.tif
176
     1
290
     0
176
     1
 40
1.0
176
     1
 40
1.0
176
     1
  0
VISUALSTYLE
  5
30
102
{ACAD_REACTORS
330
29
102
}
330
29
100
AcDbVisualStyle
  2
Wireframe
 70
     5
177
     3
291
     0
 70
    58
 90
        0
176
     1
 90
        2
176
     1
 90
        0
176
     1
 90
        0
176
     1
 40
0.6
176
     1
 40
30.0
176
     1
 62
     7
420
 16777215
176
     1
 90
        1
176
     1
 90
        4
176
     1
 62
     7
176
     1
 62
   257
176
     1
 90
        1
176
     1
 90
        1
176
     1
 40
1.0
176
     1
 90
        0
176
     1
 62
   257
176
     1
 40
1.0
176
     1
 90
        1
176
     1
 90
        6
176
     1
 90
        2
176
     1
 62
     7
176
     1
 90
        3
176
     1
 90
        0
176
     1
 90
        0
176
     1
290
     0
176
     1
 90
        1
176
     1
 40
0.0
176
     1
 90
        0
176
     1
290
     0
176
     1
290
     1
176
     1
290
     1
176
     1
290
     0
176
     1
290
     0
176
     1
290
     0
176
     1
290
     0
176
     1
290
     0
176
     1
290
     0
176
     1
 90
       50
176
     1
 40
0.0
176
     1
 40
1.0
176
     1
 90
        0
176
     1
 62
    18
420
        0
176
     1
 90
       50
176
     1
 90
        3
176
     1
 62
     5
420
      255
176
     1
290
     0
176
     1
 90
       50
176
     1
 90
       50
176
     1
 90
       50
176
     1
290
     0
176
     1
 90
       50
176
     1
 62
   256
176
     0
 40
1.0
176
     0
 90
        2
176
     1
  1
strokes_ogs.tif
176
     1
290
     0
176
     1
 40
1.0
176
     1
 40
1.0
176
     1
  0
VISUALSTYLE
  5
3C
102
{ACAD_REACTORS
330
29
102
}
330
29
100
AcDbVisualStyle
  2
X-Ray
 70
    25
177
     3
291
     0
 70
    58
 90
        2
176
     1
 90
        2
176
     1
 90
        1
176
     1
 90
        1
176
     1
 40
0.5
176
     1
 40
30.0
176
     1
 62
     7
420
 16777215
176
     1
 90
        1
176
     1
 90
        0
176
     1
 62
     7
176
     1
 62
   257
176
     1
 90
        1
176
     1
 90
        1
176
     1
 40
1.0
176
     1
 90
        8
176
     1
 62
     7
176
     1
 40
1.0
176
     1
 90
        1
176
     1
 90
        6
176
     1
 90
        2
176
     1
 62
     7
176
     1
 90
        3
176
     1
 90
        0
176
     1
 90
        0
176
     1
290
     0
176
     1
 90
       13
176
     1
 40
0.0
176
     1
 90
        0
176
     1
290
     0
176
     1
290
     1
176
     1
290
     1
176
     1
290
     0
176
     1
290
     0
176
     1
290
     0
176
     1
290
     0
176
     1
290
     0
176
     1
290
     0
176
     1
 90
       50
176
     1
 40
0.0
176
     1
 40
1.0
176
     1
 90
        0
176
     1
 62
    18
420
        0
176
     1
 90
       50
176
     1
 90
        3
176
     1
 62
     5
420
      255
176
     1
290
     0
176
     1
 90
       50
176
     1
 90
       50
176
     1
 90
       50
176
     1
290
     0
176
     1
 90
       50
176
     1
 62
   256
176
     0
 40
1.0
176
     0
 90
        2
176
     1
  1
strokes_ogs.tif
176
     1
290
     0
176
     1
 40
1.0
176
     1
 40
1.0
176
     1
  0
DICTIONARYVAR
  5
15F
102
{ACAD_REACTORS
330
15A
102
}
330
15A
100
DictionaryVariables
280
     0
  1
1:1
  0
DICTIONARYVAR
  5
15C
102
{ACAD_REACTORS
330
15A
102
}
330
15A
100
DictionaryVariables
280
     0
  1
STANDARD
  0
DICTIONARYVAR
  5
15B
102
{ACAD_REACTORS
330
15A
102
}
330
15A
100
DictionaryVariables
280
     0
  1
STANDARD
  0
DICTIONARYVAR
  5
15D
102
{ACAD_REACTORS
330
15A
102
}
330
15A
100
DictionaryVariables
280
     0
  1
Imperial24
  0
DICTIONARYVAR
  5
15E
102
{ACAD_REACTORS
330
15A
102
}
330
15A
100
DictionaryVariables
280
     0
  1
Imperial24
  0
DICTIONARY
  5
1A
330
19
100
AcDbDictionary
280
     1
281
     1
  3
BUMPTILE
360
1C
  3
DIFFUSETILE
360
1B
  3
OPACITYTILE
360
1F
  3
REFLECTIONTILE
360
1E
  3
REFRACTIONTILE
360
20
  3
SPECULARTILE
360
1D
  0
DICTIONARY
  5
12
330
11
100
AcDbDictionary
280
     1
281
     1
  3
BUMPTILE
360
14
  3
DIFFUSETILE
360
13
  3
OPACITYTILE
360
17
  3
REFLECTIONTILE
360
16
  3
REFRACTIONTILE
360
18
  3
SPECULARTILE
360
15
  0
DICTIONARY
  5
22
330
21
100
AcDbDictionary
280
     1
281
     1
  3
BUMPTILE
360
24
  3
DIFFUSETILE
360
23
  3
OPACITYTILE
360
27
  3
REFLECTIONTILE
360
26
  3
REFRACTIONTILE
360
28
  3
SPECULARTILE
360
25
  0
DICTIONARY
  5
160
330
65
100
AcDbDictionary
280
     1
281
     1
  3
ACAD_ROUNDTRIP_2008_TABLESTYLE_CELLSTYLEMAP
360
161
  0
XRECORD
  5
1C
102
{ACAD_REACTORS
330
1A
102
}
330
1A
100
AcDbXrecord
280
     1
270
     1
271
     1
  0
XRECORD
  5
1B
102
{ACAD_REACTORS
330
1A
102
}
330
1A
100
AcDbXrecord
280
     1
270
     1
271
     1
  0
XRECORD
  5
1F
102
{ACAD_REACTORS
330
1A
102
}
330
1A
100
AcDbXrecord
280
     1
270
     1
271
     1
  0
XRECORD
  5
1E
102
{ACAD_REACTORS
330
1A
102
}
330
1A
100
AcDbXrecord
280
     1
270
     1
271
     1
  0
XRECORD
  5
20
102
{ACAD_REACTORS
330
1A
102
}
330
1A
100
AcDbXrecord
280
     1
270
     1
271
     1
  0
XRECORD
  5
1D
102
{ACAD_REACTORS
330
1A
102
}
330
1A
100
AcDbXrecord
280
     1
270
     1
271
     1
  0
XRECORD
  5
14
102
{ACAD_REACTORS
330
12
102
}
330
12
100
AcDbXrecord
280
     1
270
     1
271
     1
  0
XRECORD
  5
13
102
{ACAD_REACTORS
330
12
102
}
330
12
100
AcDbXrecord
280
     1
270
     1
271
     1
  0
XRECORD
  5
17
102
{ACAD_REACTORS
330
12
102
}
330
12
100
AcDbXrecord
280
     1
270
     1
271
     1
  0
XRECORD
  5
16
102
{ACAD_REACTORS
330
12
102
}
330
12
100
AcDbXrecord
280
     1
270
     1
271
     1
  0
XRECORD
  5
18
102
{ACAD_REACTORS
330
12
102
}
330
12
100
AcDbXrecord
280
     1
270
     1
271
     1
  0
XRECORD
  5
15
102
{ACAD_REACTORS
330
12
102
}
330
12
100
AcDbXrecord
280
     1
270
     1
271
     1
  0
XRECORD
  5
24
102
{ACAD_REACTORS
330
22
102
}
330
22
100
AcDbXrecord
280
     1
270
     1
271
     1
  0
XRECORD
  5
23
102
{ACAD_REACTORS
330
22
102
}
330
22
100
AcDbXrecord
280
     1
270
     1
271
     1
  0
XRECORD
  5
27
102
{ACAD_REACTORS
330
22
102
}
330
22
100
AcDbXrecord
280
     1
270
     1
271
     1
  0
XRECORD
  5
26
102
{ACAD_REACTORS
330
22
102
}
330
22
100
AcDbXrecord
280
     1
270
     1
271
     1
  0
XRECORD
  5
28
102
{ACAD_REACTORS
330
22
102
}
330
22
100
AcDbXrecord
280
     1
270
     1
271
     1
  0
XRECORD
  5
25
102
{ACAD_REACTORS
330
22
102
}
330
22
100
AcDbXrecord
280
     1
270
     1
271
     1
  0
CELLSTYLEMAP
  5
161
102
{ACAD_REACTORS
330
160
102
}
330
160
100
AcDbCellStyleMap
 90
        3
300
CELLSTYLE
  1
TABLEFORMAT_BEGIN
 90
        5
170
     1
 91
        0
 92
    32768
 62
   257
 93
        1
300
CONTENTFORMAT
  1
CONTENTFORMAT_BEGIN
 90
        0
 91
        0
 92
      512
 93
        0
300

 40
0.0
140
1.0
 94
        5
 62
     0
340
55
144
0.25
309
CONTENTFORMAT_END
171
     0
 94
        0
309
TABLEFORMAT_END
  1
CELLSTYLE_BEGIN
 90
        1
 91
        1
300
_TITLE
309
CELLSTYLE_END
300
CELLSTYLE
  1
TABLEFORMAT_BEGIN
 90
        5
170
     1
 91
        0
 92
        0
 62
   257
 93
        1
300
CONTENTFORMAT
  1
CONTENTFORMAT_BEGIN
 90
        0
 91
        0
 92
      512
 93
        0
300

 40
0.0
140
1.0
 94
        5
 62
     0
340
55
144
0.18
309
CONTENTFORMAT_END
171
     0
 94
        0
309
TABLEFORMAT_END
  1
CELLSTYLE_BEGIN
 90
        2
 91
        1
300
_HEADER
309
CELLSTYLE_END
300
CELLSTYLE
  1
TABLEFORMAT_BEGIN
 90
        5
170
     1
 91
        0
 92
        0
 62
   257
 93
        1
300
CONTENTFORMAT
  1
CONTENTFORMAT_BEGIN
 90
        0
 91
        0
 92
      512
 93
        0
300

 40
0.0
140
1.0
 94
        2
 62
     0
340
55
144
0.18
309
CONTENTFORMAT_END
171
     0
 94
        0
309
TABLEFORMAT_END
  1
CELLSTYLE_BEGIN
 90
        3
 91
        2
300
_DATA
309
CELLSTYLE_END
  0
ENDSEC
  0
EOF
